<svg width="139" height="22" viewBox="0 0 139 22" fill="none" xmlns="http://www.w3.org/2000/svg">
<path d="M14.8784 1.93804C14.8784 1.38575 14.4307 0.938039 13.8784 0.938039H12.1588C11.6065 0.938039 11.1588 1.38575 11.1588 1.93804V12.0385L4.50934 1.40774C4.32656 1.11553 4.00619 0.938039 3.66153 0.938039H1C0.447715 0.938039 0 1.38575 0 1.93804V15.8629C0 16.4152 0.447715 16.8629 1 16.8629H2.74214C3.29443 16.8629 3.74214 16.4152 3.74214 15.8629V5.78474L10.3915 16.394C10.5744 16.6857 10.8945 16.8629 11.2388 16.8629H13.8784C14.4307 16.8629 14.8784 16.4152 14.8784 15.8629V1.93804Z" fill="#262626"/>
<path d="M16.8803 15.8629C16.8803 16.4152 17.328 16.8629 17.8803 16.8629H19.9155C20.4678 16.8629 20.9155 16.4152 20.9155 15.8629V1.93804C20.9155 1.38575 20.4678 0.938039 19.9155 0.938039H17.8803C17.328 0.938039 16.8803 1.38575 16.8803 1.93804V15.8629Z" fill="#262626"/>
<path d="M36.0805 11.1675C35.6142 11.1675 35.224 11.4998 35.0082 11.9133C34.3485 13.1775 32.8366 14.004 31.0679 14.004C28.2275 14.004 26.2212 11.9045 26.2212 8.91164C26.2212 5.87408 28.205 3.77459 31.0905 3.79692C32.8493 3.81586 34.3649 4.63793 35.0186 5.96344C35.2267 6.38541 35.6191 6.72281 36.0896 6.72281H37.5522C38.1045 6.72281 38.5522 6.2751 38.5522 5.72281V4.86135C38.5522 4.70485 38.5169 4.54982 38.4406 4.41317C37.1297 2.06523 34.0424 0.379664 30.9552 0.379664C25.883 0.379664 22.186 3.9756 22.186 8.91164C22.186 13.8477 25.883 17.4213 30.9552 17.4213C34.0381 17.4213 37.1211 15.7824 38.4351 13.5033C38.5151 13.3644 38.5522 13.2056 38.5522 13.0453V12.1675C38.5522 11.6152 38.1045 11.1675 37.5522 11.1675H36.0805Z" fill="#262626"/>
<path d="M50.4894 16.8629C51.0417 16.8629 51.4894 16.4152 51.4894 15.8629V14.669C51.4894 14.1167 51.0417 13.669 50.4894 13.669H43.8248V10.0954H49.3622C49.9145 10.0954 50.3622 9.64768 50.3622 9.0954V8.32586C50.3622 7.77357 49.9145 7.32586 49.3622 7.32586H43.8248V4.13195H50.264C50.8162 4.13195 51.264 3.68423 51.264 3.13195V1.93804C51.264 1.38575 50.8162 0.938039 50.264 0.938039H40.9474C40.3951 0.938039 39.9474 1.38575 39.9474 1.93804V15.8629C39.9474 16.4152 40.3951 16.8629 40.9474 16.8629H50.4894Z" fill="#262626"/>
<path d="M56.6304 0.267989C56.0781 0.267989 55.6304 0.715705 55.6304 1.26799V11.5695C55.6304 14.8974 58.2454 17.3096 61.8748 17.3096C65.6395 17.3096 68.3672 14.7188 68.3672 11.1451C68.3672 7.57154 65.8875 4.95834 62.506 4.95834C61.1985 4.95834 60.0488 5.42738 59.2148 6.20911V1.26799C59.2148 0.715704 58.767 0.267989 58.2148 0.267989H56.6304ZM64.7829 11.1451C64.7829 12.9096 63.5881 14.1827 61.9199 14.1827C60.2743 14.1827 59.0795 12.9096 59.0795 11.1451C59.0795 9.35834 60.2743 8.08525 61.9199 8.08525C63.5881 8.08525 64.7829 9.35834 64.7829 11.1451Z" fill="#262626"/>
<path d="M69.4737 15.8629C69.4737 16.4152 69.9214 16.8629 70.4737 16.8629H72.058C72.6103 16.8629 73.058 16.4152 73.058 15.8629V6.40508C73.058 5.85279 72.6103 5.40508 72.058 5.40508H70.4737C69.9214 5.40508 69.4737 5.85279 69.4737 6.40508V15.8629ZM69.2032 1.98782C69.2032 3.1269 70.0598 3.9533 71.2546 3.9533C72.4719 3.9533 73.3285 3.1269 73.3285 1.98782C73.3285 0.826396 72.4719 0 71.2546 0C70.0598 0 69.2032 0.826396 69.2032 1.98782Z" fill="#262626"/>
<path d="M75.8849 5.40505C75.3326 5.40505 74.8849 5.85276 74.8849 6.40505V7.3086C74.8849 7.86088 75.3326 8.3086 75.8849 8.3086H80.3628L74.9218 14.2535C74.753 14.4378 74.6594 14.6787 74.6594 14.9286V15.8629C74.6594 16.4152 75.1071 16.8629 75.6594 16.8629H84.4575C85.0098 16.8629 85.4575 16.4152 85.4575 15.8629V14.9594C85.4575 14.4071 85.0098 13.9594 84.4575 13.9594H79.8669L84.9899 8.00917C85.1462 7.8277 85.2321 7.59618 85.2321 7.3567V6.40504C85.2321 5.85276 84.7844 5.40505 84.2321 5.40505H75.8849Z" fill="#262626"/>
<path d="M90.6652 6.40505C90.6652 5.85276 90.2175 5.40505 89.6652 5.40505H88.2161C87.6639 5.40505 87.2161 5.85276 87.2161 6.40505V15.8629C87.2161 16.4152 87.6639 16.8629 88.2161 16.8629H89.8005C90.3528 16.8629 90.8005 16.4152 90.8005 15.8629V10.3634C90.8005 9.00098 91.5895 8.08525 92.8068 8.08525C93.979 8.08525 94.7455 9.00098 94.7455 10.3634V15.8629C94.7455 16.4152 95.1932 16.8629 95.7455 16.8629H97.3298C97.8821 16.8629 98.3298 16.4152 98.3298 15.8629V10.3634C98.3298 9.02332 99.1639 8.08525 100.404 8.08525C101.621 8.12992 102.433 9.09032 102.433 10.3634V15.8629C102.433 16.4152 102.88 16.8629 103.433 16.8629H105.017C105.569 16.8629 106.017 16.4152 106.017 15.8629V9.60403C106.017 6.87916 104.214 4.98068 101.599 4.98068C100.021 4.98068 98.4651 5.74007 97.7437 6.99083C97.0674 5.74007 95.7149 4.95834 94.0467 4.95834C92.649 4.95834 91.3641 5.62839 90.6652 6.78982V6.40505Z" fill="#262626"/>
<path d="M114.167 4.95834C110.402 4.95834 107.742 7.54921 107.742 11.1451C107.742 14.7858 110.064 17.3096 113.423 17.3096C115.023 17.3096 116.398 16.6619 117.345 15.5005V15.8629C117.345 16.4152 117.793 16.8629 118.345 16.8629H119.636C120.189 16.8629 120.636 16.4152 120.636 15.8629V11.1451C120.636 7.54921 117.931 4.95834 114.167 4.95834ZM114.189 8.08525C115.857 8.08525 117.052 9.35834 117.052 11.1451C117.052 12.9096 115.857 14.1827 114.189 14.1827C112.521 14.1827 111.326 12.9096 111.326 11.1451C111.326 9.35834 112.521 8.08525 114.189 8.08525Z" fill="#262626"/>
<path d="M124.996 22C125.548 22 125.996 21.5523 125.996 21V16.0589C126.83 16.8406 127.979 17.3096 129.287 17.3096C132.668 17.3096 135.148 14.7188 135.148 11.1451C135.148 7.57154 132.42 4.95834 128.656 4.95834C125.026 4.95834 122.411 7.37053 122.411 10.6984V21C122.411 21.5523 122.859 22 123.411 22H124.996ZM131.564 11.1451C131.564 12.9096 130.369 14.1827 128.701 14.1827C127.055 14.1827 125.86 12.9096 125.86 11.1451C125.86 9.35834 127.055 8.08525 128.701 8.08525C130.369 8.08525 131.564 9.35834 131.564 11.1451Z" fill="#262626"/>
<ellipse cx="136.979" cy="1.96842" rx="1.96842" ry="1.96842" fill="#1F67FD"/>
</svg>
