<svg width="22" height="24" viewBox="0 0 22 24" fill="none" xmlns="http://www.w3.org/2000/svg">
<path d="M11.7656 12.4302L21.0301 11.988C21.0516 11.987 21.0516 11.9559 21.0301 11.9548L11.7656 11.5142L11.312 1.01683C11.3109 0.99439 11.2762 0.99439 11.2751 1.01683L10.8204 11.5142L0.891806 11.9513C0.865492 11.9523 0.865492 11.99 0.891806 11.991L10.8204 12.4296L11.2793 23.0219C11.2799 23.0392 11.3067 23.0392 11.3078 23.0219L11.7651 12.4296" fill="#A7A8A9"/>
<path d="M13.6213 14.1772V22.8498H13.6219H20.5769V21.6508H14.9145V18.9942H19.9032V17.7952H14.9145V15.3763H20.5769V14.1772H13.6219H13.6213Z" fill="#A7A8A9"/>
<path d="M20.0889 8.57994H17.7464V2.32987H20.0889V1.13086H14.1107V2.32987H16.4533V8.57994H14.1107V9.77896H20.0889V8.57994Z" fill="#A7A8A9"/>
<path d="M2.7239 3.10865L7.42742 9.77896H8.96052V1.13086H7.66741V7.76445L2.99336 1.13086H1.43079V9.77896H2.7239V3.10865Z" fill="#A7A8A9"/>
<path d="M5.37681 15.0716C5.37681 15.0716 6.0631 15.0583 6.68624 15.3251C7.43621 15.6464 7.93883 16.2364 8.1725 17.0983H9.53088C9.17089 15.3098 8.0704 14.5096 7.20991 14.1429C6.29204 13.7517 5.38523 13.7844 5.37944 13.7844C3.90634 13.7844 2.78322 14.2638 2.03851 15.2088C1.40274 16.0156 1.06644 17.1509 1.06433 18.4912C1.06644 19.832 1.40274 20.9667 2.03851 21.7735C2.78322 22.7186 3.90634 23.1975 5.37944 23.198C5.38471 23.198 6.29152 23.2306 7.20991 22.8394C8.0704 22.4727 9.17089 21.6726 9.53088 19.884H8.1725C7.93883 20.7459 7.43621 21.3365 6.68624 21.6573C6.06363 21.924 5.37681 21.9107 5.37681 21.9107C3.81424 21.9107 3.26899 21.2187 3.08952 20.9912C2.63217 20.4108 2.38955 19.5464 2.38797 18.4912C2.38955 17.436 2.63217 16.5715 3.08952 15.9911C3.26899 15.7637 3.81424 15.0716 5.37681 15.0716Z" fill="#A7A8A9"/>
</svg>
