<svg width="114" height="18" viewBox="0 0 114 18" fill="none" xmlns="http://www.w3.org/2000/svg">
<path d="M12.207 1.76749C12.207 1.2152 11.7593 0.767488 11.207 0.767488H10.1553C9.60299 0.767488 9.15528 1.2152 9.15528 1.76749V9.84973L3.75261 1.23613C3.5697 0.944526 3.24968 0.767488 2.90546 0.767488H0.999999C0.447714 0.767488 0 1.2152 0 1.76749V12.7969C0 13.3492 0.447715 13.7969 1 13.7969H2.07025C2.62254 13.7969 3.07026 13.3492 3.07026 12.7969V4.73298L8.47282 13.3291C8.65581 13.6202 8.97558 13.7969 9.31948 13.7969H11.207C11.7593 13.7969 12.207 13.3492 12.207 12.7969V1.76749Z" fill="#262626"/>
<path d="M13.8495 12.7969C13.8495 13.3492 14.2972 13.7969 14.8495 13.7969H16.1602C16.7125 13.7969 17.1602 13.3492 17.1602 12.7969V1.76749C17.1602 1.2152 16.7125 0.767488 16.1602 0.767488H14.8495C14.2972 0.767488 13.8495 1.2152 13.8495 1.76749V12.7969Z" fill="#262626"/>
<path d="M29.745 9.13704C29.2789 9.13704 28.8908 9.47257 28.6523 9.87309C28.0789 10.8361 26.8812 11.4579 25.4898 11.4579C23.1594 11.4579 21.5133 9.74009 21.5133 7.29135C21.5133 4.80607 23.1409 3.0883 25.5083 3.10658C26.8932 3.12145 28.0944 3.74159 28.663 4.75024C28.8939 5.15991 29.2838 5.50049 29.7541 5.50049H30.6303C31.1826 5.50049 31.6303 5.05277 31.6303 4.50049V4.02134C31.6303 3.86446 31.5951 3.70891 31.5172 3.57273C30.4297 1.67156 27.9135 0.310635 25.3973 0.310635C21.2358 0.310635 18.2026 3.25277 18.2026 7.29135C18.2026 11.3299 21.2358 14.2538 25.3973 14.2538C27.9092 14.2538 30.4211 12.9314 31.5116 11.0868C31.5934 10.9484 31.6303 10.7892 31.6303 10.6285V10.137C31.6303 9.58476 31.1826 9.13704 30.6303 9.13704H29.745Z" fill="#262626"/>
<path d="M41.2447 13.7969C41.797 13.7969 42.2447 13.3492 42.2447 12.7969V12.1837C42.2447 11.6315 41.797 11.1837 41.2447 11.1837H35.9562V8.25988H40.3199C40.8722 8.25988 41.3199 7.81217 41.3199 7.25988V6.99389C41.3199 6.44161 40.8722 5.99389 40.3199 5.99389H35.9562V3.38069H41.0597C41.612 3.38069 42.0597 2.93297 42.0597 2.38069V1.76749C42.0597 1.2152 41.612 0.767488 41.0597 0.767488H33.775C33.2227 0.767488 32.775 1.2152 32.775 1.76749V12.7969C32.775 13.3492 33.2227 13.7969 33.775 13.7969H41.2447Z" fill="#262626"/>
<path d="M46.6422 0.219264C46.0899 0.219264 45.6422 0.66698 45.6422 1.21926V9.46598C45.6422 12.1888 47.7877 14.1624 50.7654 14.1624C53.8542 14.1624 56.0922 12.0426 56.0922 9.11877C56.0922 6.19491 54.0576 4.05683 51.2833 4.05683C50.2106 4.05683 49.2673 4.44059 48.583 5.08018V1.21926C48.583 0.66698 48.1353 0.219264 47.583 0.219264H46.6422ZM53.1514 9.11877C53.1514 10.5624 52.1711 11.6041 50.8024 11.6041C49.4523 11.6041 48.472 10.5624 48.472 9.11877C48.472 7.65684 49.4523 6.61521 50.8024 6.61521C52.1711 6.61521 53.1514 7.65684 53.1514 9.11877Z" fill="#262626"/>
<path d="M57 12.797C57 13.3493 57.4477 13.797 58 13.797H58.9407C59.493 13.797 59.9407 13.3493 59.9407 12.797V5.42234C59.9407 4.87006 59.493 4.42234 58.9407 4.42234H58C57.4477 4.42234 57 4.87006 57 5.42234V12.797ZM56.778 1.6264C56.778 2.55838 57.4808 3.23452 58.4611 3.23452C59.4598 3.23452 60.1627 2.55838 60.1627 1.6264C60.1627 0.676143 59.4598 0 58.4611 0C57.4808 0 56.778 0.676143 56.778 1.6264Z" fill="#262626"/>
<path d="M62.4396 4.42232C61.8873 4.42232 61.4396 4.87003 61.4396 5.42232V5.79795C61.4396 6.35024 61.8873 6.79795 62.4396 6.79795H65.934L61.5179 11.6096C61.3486 11.7941 61.2546 12.0354 61.2546 12.2858V12.7969C61.2546 13.3492 61.7023 13.7969 62.2546 13.7969H69.114C69.6662 13.7969 70.114 13.3492 70.114 12.7969V12.4213C70.114 11.869 69.6662 11.4213 69.114 11.4213H65.5271L69.6859 6.60437C69.8427 6.42275 69.929 6.19081 69.929 5.95086V5.42232C69.929 4.87003 69.4813 4.42232 68.929 4.42232H62.4396Z" fill="#262626"/>
<path d="M74.3866 5.42232C74.3866 4.87003 73.9389 4.42232 73.3866 4.42232H72.5568C72.0045 4.42232 71.5568 4.87003 71.5568 5.42232V12.7969C71.5568 13.3492 72.0045 13.7969 72.5568 13.7969H73.4976C74.0499 13.7969 74.4976 13.3492 74.4976 12.7969V8.47917C74.4976 7.36445 75.145 6.61521 76.1437 6.61521C77.1055 6.61521 77.7343 7.36445 77.7343 8.47917V12.7969C77.7343 13.3492 78.182 13.7969 78.7343 13.7969H79.6751C80.2274 13.7969 80.6751 13.3492 80.6751 12.7969V8.47917C80.6751 7.38273 81.3594 6.61521 82.3767 6.61521C83.3755 6.65176 84.0413 7.43755 84.0413 8.47917V12.7969C84.0413 13.3492 84.489 13.7969 85.0413 13.7969H85.9821C86.5344 13.7969 86.9821 13.3492 86.9821 12.7969V7.85785C86.9821 5.62841 85.5024 4.07511 83.357 4.07511C82.0623 4.07511 80.7861 4.69643 80.1942 5.71978C79.6394 4.69643 78.5296 4.05683 77.161 4.05683C76.0142 4.05683 74.96 4.60506 74.3866 5.55531V5.42232Z" fill="#262626"/>
<path d="M93.6684 4.05683C90.5797 4.05683 88.3972 6.17663 88.3972 9.11877C88.3972 12.0975 90.3022 14.1624 93.0581 14.1624C94.3712 14.1624 95.4995 13.6325 96.2763 12.6822V12.7969C96.2763 13.3492 96.724 13.7969 97.2763 13.7969H97.9766C98.5289 13.7969 98.9766 13.3492 98.9766 12.7969V9.11877C98.9766 6.17663 96.7572 4.05683 93.6684 4.05683ZM93.6869 6.61521C95.0556 6.61521 96.0358 7.65684 96.0358 9.11877C96.0358 10.5624 95.0556 11.6041 93.6869 11.6041C92.3182 11.6041 91.338 10.5624 91.338 9.11877C91.338 7.65684 92.3182 6.61521 93.6869 6.61521Z" fill="#262626"/>
<path d="M102.374 18C102.926 18 103.374 17.5523 103.374 17V13.1391C104.058 13.7787 105.001 14.1624 106.074 14.1624C108.848 14.1624 110.883 12.0426 110.883 9.11877C110.883 6.19491 108.645 4.05683 105.556 4.05683C102.578 4.05683 100.433 6.03044 100.433 8.75328V17C100.433 17.5523 100.88 18 101.433 18H102.374ZM107.942 9.11877C107.942 10.5624 106.962 11.6041 105.593 11.6041C104.243 11.6041 103.263 10.5624 103.263 9.11877C103.263 7.65684 104.243 6.61521 105.593 6.61521C106.962 6.61521 107.942 7.65684 107.942 9.11877Z" fill="#262626"/>
<ellipse cx="112.385" cy="1.61053" rx="1.615" ry="1.61053" fill="#1F67FD"/>
</svg>
