<svg width="134" height="28" viewBox="0 0 134 28" fill="none" xmlns="http://www.w3.org/2000/svg">
<path d="M56.4278 18.6296L56.4227 18.6347V19.8316H65.0837V18.2795H58.7143L65.0254 9.38551L65.0305 9.38046V8.18349H56.3695V9.73568H62.7389L56.4278 18.6296Z" fill="black"/>
<path d="M68.2718 8.18349H66.407V19.8333H68.2718V8.18349Z" fill="black"/>
<path d="M72.2363 11.3215H72.3135L78.4309 19.8215L78.4377 19.8316H80.1449V8.18349H78.2972V16.7037H78.2218L72.0975 8.19191L72.0906 8.18349H70.3715V19.8316H72.2363V11.3215Z" fill="black"/>
<path d="M84.1095 8.18349H82.2446V19.8333H84.1095V8.18349Z" fill="black"/>
<path d="M93.2745 19.1296C94.1384 18.6633 94.8069 17.9865 95.2645 17.1178C95.7204 16.2491 95.9518 15.1986 95.9518 13.9916C95.9518 12.7845 95.7221 11.7407 95.2696 10.8788C94.8171 10.0151 94.1572 9.34342 93.3105 8.88046C92.4638 8.4175 91.437 8.18349 90.2578 8.18349H86.2092V19.8333H90.1327C91.3548 19.8333 92.4123 19.5976 93.2745 19.1313V19.1296ZM90.1447 9.75925C91.0154 9.75925 91.7541 9.92423 92.3403 10.2491C92.9265 10.5741 93.3722 11.0572 93.6687 11.6835C93.9653 12.3114 94.1161 13.0892 94.1161 13.9916C94.1161 14.8939 93.9635 15.6835 93.6653 16.3131C93.3671 16.9428 92.9111 17.4293 92.3095 17.7592C91.7079 18.0892 90.9417 18.2576 90.0315 18.2576H88.0724V9.75925H90.1447Z" fill="black"/>
<path d="M99.0884 16.7609H103.764L104.861 19.8165L104.866 19.8316H106.846L102.498 8.19696L102.493 8.18181H100.36L96.0066 19.8316H97.9863L99.0901 16.7609H99.0884ZM101.397 10.3367H101.459L103.219 15.2424H99.6335L101.397 10.3367Z" fill="black"/>
<path d="M109.357 19.8316H111.217V9.73568H114.976V8.18349H105.604V9.73568H109.357V19.8316Z" fill="black"/>
<path d="M115.725 19.8316L116.829 16.7609H121.505L122.602 19.8165L122.607 19.8316H124.587L120.238 8.19696L120.233 8.18181H118.101L113.747 19.8316H115.727H115.725ZM117.374 15.2424L119.138 10.3367H119.199L120.96 15.2424H117.374Z" fill="black"/>
<path d="M34.927 20.3451C34.9407 20.3451 36.1302 20.3855 37.3301 19.8687C38.4528 19.3838 39.8874 18.3165 40.3656 15.9832H38.6464C38.3345 17.1229 37.6694 17.9209 36.6684 18.3552C35.8457 18.7121 34.9287 18.6986 34.9218 18.6986C32.8376 18.6986 32.1091 17.7593 31.8691 17.4512C31.2589 16.6667 30.9367 15.5 30.9333 14.0791C30.935 12.6566 31.2589 11.4899 31.8691 10.7054C32.1091 10.3973 32.8376 9.4579 34.9235 9.4579C34.9304 9.4579 35.8474 9.44443 36.6701 9.80134C37.6711 10.2357 38.3362 11.0337 38.6481 12.1751H40.3673C39.8874 9.84174 38.4528 8.7744 37.3318 8.28955C36.2999 7.84343 35.2749 7.81144 35.0007 7.81144C34.9561 7.81144 34.9321 7.81144 34.9304 7.81144C32.9953 7.81144 31.5195 8.4478 30.5442 9.70369C29.7094 10.7778 29.2672 12.2912 29.2638 14.0774C29.2655 15.8653 29.7077 17.3771 30.5442 18.4512C31.5212 19.7071 32.9953 20.3434 34.9287 20.3434L34.927 20.3451Z" fill="black"/>
<path d="M51.0097 18.2963H43.4371V14.6279H50.0345V13.0842H43.4371V9.73737H51.0097V8.19359H41.7848V19.8417H51.0097V18.2963Z" fill="black"/>
<path d="M28.8026 18.2912H25.6694V9.73905H28.8026V8.18854H20.8821V9.73905H24.0171V18.2912H20.8821V19.8417H28.8026V18.2912Z" fill="black"/>
<path d="M11.0538 10.7121L17.4043 19.8417H19.396V8.19023H17.7437V17.271L11.4309 8.19023H9.40149V19.8417H11.0538V10.7121Z" fill="black"/>
<path d="M128.656 5.25083H5.34436V22.7508H128.654V5.25083H128.656ZM127.428 21.5438H6.57332V6.45622H127.428V21.5438Z" fill="black"/>
</svg>
