<svg width="32" height="32" viewBox="0 0 32 32" fill="none" xmlns="http://www.w3.org/2000/svg">
<path opacity="0.35" fill-rule="evenodd" clip-rule="evenodd" d="M19.6715 10.179C20.5166 10.6041 21.6604 11.0068 22.9863 11.0068C23.88 11.0067 24.6947 10.8224 25.3978 10.568L26.0178 11.0086V23.1565C26.0178 25.166 24.3891 26.7947 22.3797 26.7947H7.82701C5.81753 26.7947 4.18884 25.166 4.18884 23.1565V10.314C5.01442 10.6919 6.04996 11.0067 7.22035 11.0068C8.54578 11.0067 9.68936 10.604 10.5343 10.179C11.6624 10.5817 13.2766 11.0068 15.1033 11.0068C16.9296 11.0067 18.5434 10.5816 19.6715 10.179ZM8.28089 15.2724C7.6116 15.2725 7.06846 15.8155 7.06846 16.4848V20.3658C7.06862 21.035 7.6117 21.5781 8.28089 21.5782H12.1619C12.8312 21.5782 13.3742 21.0351 13.3743 20.3658V16.4848C13.3743 15.8154 12.8313 15.2724 12.1619 15.2724H8.28089Z" fill="#009966"/>
<path d="M22.3787 2.90259C24.3882 2.90259 26.0169 4.53127 26.0169 6.54075V7.46717L27.1023 9.6371C27.3471 10.127 27.2329 10.719 26.8243 11.084C26.6475 11.2411 25.061 12.6046 22.9854 12.6047L22.7358 12.5975C22.6138 12.5912 22.494 12.5787 22.376 12.5638C22.3389 12.5591 22.3018 12.555 22.265 12.5496C22.2218 12.5432 22.1789 12.5357 22.1362 12.5283C22.108 12.5233 22.0798 12.5185 22.0518 12.5132C22.01 12.5052 21.9687 12.4963 21.9275 12.4874C21.8933 12.48 21.8591 12.4732 21.8253 12.4652C21.775 12.4533 21.7254 12.4401 21.6761 12.427C21.6586 12.4223 21.6411 12.4176 21.6237 12.4128C21.5804 12.4008 21.5375 12.3883 21.4949 12.3755C21.466 12.3668 21.4373 12.3579 21.4088 12.3488C21.3657 12.3351 21.323 12.3216 21.2809 12.3071C21.2582 12.2993 21.2358 12.2911 21.2134 12.2831C21.1705 12.2678 21.1282 12.252 21.0863 12.236C21.0696 12.2297 21.0531 12.223 21.0366 12.2165C20.9255 12.1729 20.8183 12.1269 20.7151 12.0797C20.6722 12.0601 20.6304 12.0393 20.5889 12.0193C20.5193 11.9857 20.451 11.9533 20.3855 11.9189C20.1725 11.8072 19.982 11.6935 19.818 11.5867C19.7004 11.6374 19.57 11.6911 19.428 11.7466C19.1852 11.8417 18.9077 11.9396 18.602 12.0362C18.1041 12.1936 17.5305 12.3446 16.9028 12.4501C16.3401 12.5447 15.7344 12.6047 15.1024 12.6047L14.7267 12.5975C14.6041 12.593 14.4827 12.5857 14.3625 12.5771C14.3343 12.5751 14.3062 12.5722 14.2781 12.57C14.193 12.5632 14.1087 12.5555 14.025 12.5469C13.9711 12.5414 13.9175 12.5354 13.8642 12.5292C13.7998 12.5216 13.7358 12.5137 13.6723 12.5052C13.6313 12.4996 13.5905 12.4933 13.5498 12.4874C13.4772 12.4768 13.4052 12.4663 13.3339 12.4545C13.297 12.4484 13.2604 12.4414 13.2238 12.435C13.143 12.4208 13.0629 12.407 12.984 12.3915C12.9706 12.3889 12.9573 12.3861 12.944 12.3835C12.8557 12.3659 12.7686 12.3475 12.6829 12.3284C12.6453 12.3201 12.608 12.3113 12.5709 12.3027C12.5177 12.2903 12.465 12.2773 12.4128 12.2645C12.3587 12.2512 12.305 12.2382 12.2521 12.2245C12.2159 12.2151 12.1802 12.2048 12.1446 12.1952C11.9949 12.1549 11.8502 12.1134 11.7111 12.0708C11.6157 12.0416 11.5232 12.0109 11.4331 11.9811C11.3466 11.9525 11.2621 11.9255 11.1809 11.8967C11.1544 11.8874 11.1286 11.8768 11.1027 11.8674C10.9884 11.8262 10.8793 11.7868 10.7767 11.7466L10.3877 11.5867C10.1312 11.7536 9.81063 11.9387 9.43907 12.1046C9.25342 12.1875 9.05512 12.2658 8.84574 12.3346C8.77595 12.3576 8.70473 12.3788 8.63256 12.3995C8.48812 12.4408 8.33906 12.4775 8.18579 12.5078C7.87899 12.5686 7.55555 12.6046 7.2194 12.6047L7.02666 12.6002C6.82308 12.592 6.62483 12.5701 6.43243 12.5389C6.33917 12.5238 6.2474 12.5062 6.15708 12.4865C6.11764 12.478 6.07869 12.4683 6.03984 12.459C5.97447 12.4432 5.90984 12.427 5.84621 12.4092C4.47453 12.027 3.51508 11.2036 3.3805 11.084C2.97189 10.7191 2.8577 10.127 3.10248 9.6371L4.18789 7.46717V6.54075C4.18789 4.53132 5.81664 2.90266 7.82606 2.90259H22.3787Z" fill="#009966"/>
<circle cx="23.349" cy="21.821" r="7.27633" fill="#009966"/>
<path d="M23.3489 17.2732C24.0521 17.2732 24.6222 17.8433 24.6222 18.5466V20.5475H26.6232C27.3265 20.5475 27.8966 21.1176 27.8966 21.8209C27.8966 22.5242 27.3265 23.0943 26.6232 23.0943H24.6222V25.0952C24.6222 25.7985 24.0521 26.3686 23.3489 26.3686C22.6456 26.3686 22.0755 25.7985 22.0755 25.0952V23.0943H20.0745C19.3712 23.0943 18.8011 22.5242 18.8011 21.8209C18.8011 21.1176 19.3712 20.5475 20.0745 20.5475H22.0755V18.5466C22.0755 17.8433 22.6456 17.2732 23.3489 17.2732Z" fill="white"/>
</svg>
