<svg width="48" height="48" viewBox="0 0 48 48" fill="none" xmlns="http://www.w3.org/2000/svg">
<rect width="48" height="48" rx="16" fill="#0083CA"/>
<rect x="0.75" y="0.75" width="46.5" height="46.5" rx="15.25" stroke="#27272A" stroke-opacity="0.1" stroke-width="1.5"/>
<path d="M34.7999 23.9992C34.7999 26.1346 34.1669 28.222 32.9809 29.9977C31.7949 31.7734 30.1092 33.1576 28.1367 33.9756C26.1642 34.7935 23.9936 35.0083 21.899 34.5929C19.8045 34.1775 17.8801 33.1505 16.369 31.6418C14.858 30.133 13.8281 28.2102 13.4095 26.1163C12.9909 24.0224 13.2024 21.8514 14.0173 19.8777C14.8322 17.9039 16.2139 16.2161 17.9878 15.0274C19.7617 13.8387 21.8482 13.2025 23.9835 13.1992C25.4032 13.1971 26.8093 13.4748 28.1215 14.0166C29.4337 14.5584 30.6263 15.3536 31.6309 16.3567C32.6355 17.3598 33.4325 18.5511 33.9763 19.8624C34.52 21.1738 34.7999 22.5796 34.7999 23.9992Z" fill="white"/>
<path d="M23.9834 34.2976C26.0205 34.2993 28.0124 33.6967 29.707 32.5661C31.4016 31.4355 32.7229 29.8277 33.5036 27.9461C34.2843 26.0645 34.4894 23.9936 34.093 21.9954C33.6966 19.9972 32.7164 18.1614 31.2765 16.7204C29.8366 15.2793 28.0016 14.2977 26.0037 13.8997C24.0058 13.5016 21.9348 13.7051 20.0526 14.4843C18.1703 15.2635 16.5615 16.5834 15.4295 18.2772C14.2976 19.9709 13.6934 21.9623 13.6934 23.9994C13.6923 25.3514 13.9576 26.6904 14.4743 27.9398C14.9909 29.1891 15.7487 30.3245 16.7043 31.2809C17.66 32.2373 18.7947 32.9959 20.0437 33.5136C21.2927 34.0312 22.6314 34.2976 23.9834 34.2976Z" fill="#0083CA"/>
<mask id="mask0_989_26610" style="mask-type:luminance" maskUnits="userSpaceOnUse" x="13" y="13" width="22" height="22">
<path d="M23.9834 34.2988C26.0186 34.2988 28.008 33.6953 29.7002 32.5646C31.3924 31.4339 32.7113 29.8268 33.4901 27.9466C34.269 26.0663 34.4727 23.9974 34.0757 22.0013C33.6786 20.0052 32.6986 18.1717 31.2595 16.7326C29.8205 15.2935 27.9869 14.3135 25.9909 13.9165C23.9948 13.5194 21.9258 13.7232 20.0456 14.502C18.1653 15.2809 16.5582 16.5998 15.4276 18.2919C14.2969 19.9841 13.6934 21.9736 13.6934 24.0088C13.6955 26.7372 14.7804 29.3532 16.7096 31.2825C18.6389 33.2118 21.255 34.2966 23.9834 34.2988Z" fill="white"/>
</mask>
<g mask="url(#mask0_989_26610)">
<path d="M24.0985 28.9685C28.6307 28.9685 32.4966 30.2352 34.1664 32.0201C34.7213 30.7033 35.0012 29.2869 34.9889 27.858C34.9109 25.0139 33.7262 22.3125 31.687 20.3285C29.6477 18.3445 26.9148 17.2344 24.0697 17.2344C21.2245 17.2344 18.4916 18.3445 16.4524 20.3285C14.4131 22.3125 13.2285 25.0139 13.1504 27.858C13.1569 29.2733 13.4508 30.6724 14.0141 31.9707C15.7085 30.2352 19.5827 28.9685 24.0985 28.9685Z" fill="#0083CA"/>
<path d="M24.0983 28.9763C28.614 28.9763 32.4718 30.2347 34.1415 32.0032C34.6914 30.7021 34.9712 29.303 34.9641 27.8905C34.9641 25.0022 33.8167 22.2321 31.7743 20.1898C29.732 18.1474 26.9619 17 24.0736 17C21.1852 17 18.4152 18.1474 16.3728 20.1898C14.3305 22.2321 13.1831 25.0022 13.1831 27.8905C13.1843 29.3063 13.4784 30.7065 14.0468 32.0032C15.7577 30.2347 19.5907 28.9763 24.0983 28.9763Z" fill="#0085CB"/>
<path d="M24.0982 28.9937C28.5975 28.9937 32.4552 30.2358 34.1085 31.996C34.6653 30.6971 34.9455 29.2964 34.9311 27.8833C34.8532 25.0543 33.6747 22.3674 31.6462 20.394C29.6178 18.4206 26.8994 17.3164 24.0694 17.3164C21.2394 17.3164 18.521 18.4206 16.4925 20.394C14.464 22.3674 13.2855 25.0543 13.2077 27.8833C13.1933 29.2964 13.4734 30.6971 14.0302 31.996C15.7576 30.2358 19.5989 28.9937 24.0982 28.9937Z" fill="#0086CD"/>
<path d="M24.0986 29.0008C28.5897 29.0008 32.4309 30.2346 34.0842 31.9784C34.635 30.6949 34.9151 29.3116 34.9068 27.915C34.7976 25.115 33.6086 22.466 31.5889 20.5235C29.5693 18.5811 26.876 17.4961 24.0739 17.4961C21.2717 17.4961 18.5784 18.5811 16.5588 20.5235C14.5392 22.466 13.3501 25.115 13.241 27.915C13.2288 29.3093 13.509 30.6907 14.0635 31.9701C15.758 30.2346 19.6157 29.0008 24.0986 29.0008Z" fill="#0088CE"/>
<path d="M24.0984 29.0172C28.573 29.0172 32.4061 30.2345 34.0594 31.9701C34.6094 30.698 34.8895 29.3255 34.8819 27.9396C34.7729 25.1461 33.5865 22.5032 31.5715 20.5653C29.5565 18.6274 26.8694 17.5449 24.0737 17.5449C21.278 17.5449 18.5909 18.6274 16.5759 20.5653C14.5609 22.5032 13.3745 25.1461 13.2655 27.9396C13.2536 29.326 13.5339 30.6993 14.088 31.9701C15.7578 30.2345 19.6238 29.0172 24.0984 29.0172Z" fill="#008ACF"/>
<path d="M24.0901 29.0255C28.5648 29.0255 32.3814 30.2346 34.0264 31.9537C34.5808 30.6946 34.8612 29.3319 34.849 27.9561C34.849 22.2888 30.0207 17.625 24.0654 17.625C18.1102 17.625 13.2901 22.2888 13.2901 27.9644C13.2788 29.3374 13.5592 30.6972 14.1127 31.9537C15.8071 30.2346 19.6319 29.0255 24.0901 29.0255Z" fill="#008CD0"/>
<path d="M24.0905 29.033C28.5487 29.033 32.3653 30.2422 34.0022 31.9366C34.5518 30.6904 34.8321 29.3422 34.8247 27.9802C34.8247 22.354 30.0046 17.7148 24.0658 17.7148C18.1271 17.7148 13.3234 22.3622 13.3234 27.9802C13.315 29.3423 13.5954 30.6907 14.146 31.9366C15.824 30.2422 19.6406 29.033 24.0905 29.033Z" fill="#008ED2"/>
<path d="M24.0901 29.0504C28.54 29.0504 32.3155 30.2431 33.9606 31.9293C34.5111 30.6921 34.7916 29.3517 34.7831 27.9975C34.7831 22.4207 29.9795 17.8145 24.0901 17.8145C18.2007 17.8145 13.397 22.4289 13.397 28.0058C13.3935 29.3568 13.6737 30.6935 14.2195 31.9293C15.8482 30.2431 19.6566 29.0504 24.0901 29.0504Z" fill="#008FD3"/>
<path d="M24.0901 29.058C28.5236 29.058 32.3155 30.2424 33.9606 31.9122C34.511 30.6895 34.7915 29.3625 34.7831 28.0216C34.7831 22.4941 29.9877 17.9043 24.0901 17.9043C18.1924 17.9043 13.397 22.4941 13.397 28.0216C13.3934 29.362 13.6737 30.688 14.2196 31.9122C15.8646 30.2424 19.6648 29.058 24.0901 29.058Z" fill="#0091D4"/>
<path d="M24.0902 29.0758C28.5073 29.0758 32.3156 30.2438 33.9196 31.9053C34.4692 30.691 34.7498 29.3722 34.7421 28.0393C34.7421 22.5612 29.9631 17.9961 24.0491 17.9961C18.135 17.9961 13.356 22.5612 13.356 28.0393C13.3524 29.3718 13.6328 30.6897 14.1785 31.9053C15.8894 30.2438 19.6731 29.0758 24.0902 29.0758Z" fill="#0093D5"/>
<path d="M24.09 29.0833C28.4988 29.0833 32.2743 30.2431 33.8947 31.8882C34.4403 30.6871 34.7208 29.3826 34.7172 28.0634C34.7172 22.6264 29.9465 18.0859 24.0735 18.0859C18.2006 18.0859 13.4298 22.6346 13.4298 28.0634C13.4263 29.3826 13.7068 30.6871 14.2524 31.8882C15.9057 30.2431 19.6812 29.0833 24.09 29.0833Z" fill="#0095D7"/>
<path d="M24.0817 29.0912C28.4823 29.0912 32.2496 30.2428 33.8618 31.8714C34.4112 30.6833 34.6921 29.3886 34.6843 28.0795C34.6843 22.6918 29.93 18.209 24.0653 18.209C18.2005 18.209 13.4627 22.733 13.4627 28.0795C13.4594 29.3881 13.7401 30.6818 14.2852 31.8714C15.9303 30.2428 19.6976 29.0912 24.0817 29.0912Z" fill="#0097D8"/>
<path d="M24.0822 29.1084C28.4746 29.1084 32.2254 30.2435 33.8376 31.8639C34.3824 30.6858 34.6631 29.4029 34.6602 28.1049C34.6602 22.7666 29.9223 18.2344 24.074 18.2344C18.2257 18.2344 13.4961 22.7337 13.4961 28.1049C13.4932 29.4029 13.7739 30.6858 14.3187 31.8639C15.9473 30.2435 19.7063 29.1084 24.0822 29.1084Z" fill="#0099D9"/>
<path d="M24.0821 29.1163C28.4581 29.1163 32.2006 30.2514 33.8128 31.8471C34.3582 30.6809 34.6391 29.4085 34.6354 28.121C34.6354 22.8321 29.9057 18.3574 24.0739 18.3574C18.2421 18.3574 13.5207 22.8321 13.5207 28.121C13.5169 29.4085 13.7978 30.6809 14.3432 31.8471C15.9718 30.2514 19.7144 29.1163 24.0821 29.1163Z" fill="#009BDA"/>
<path d="M24.0821 29.1321C28.4416 29.1321 32.1841 30.2508 33.7799 31.8383C34.3243 30.6804 34.6052 29.4163 34.6024 28.1368C34.6024 22.8972 29.8892 18.4473 24.0738 18.4473C18.2585 18.4473 13.5453 22.8972 13.5453 28.1451C13.5434 29.4218 13.8243 30.683 14.3678 31.8383C15.9883 30.2508 19.7226 29.1321 24.0821 29.1321Z" fill="#009DDC"/>
<path d="M24.082 29.1416C28.4333 29.1416 32.1594 30.2521 33.7551 31.8231C34.2994 30.6798 34.5805 29.429 34.5777 28.1628C34.5777 22.9643 29.8727 18.5391 24.0738 18.5391C18.2748 18.5391 13.5781 22.9726 13.5781 28.1628C13.5789 29.4287 13.8598 30.6787 14.4007 31.8231C16.0129 30.2521 19.739 29.1416 24.082 29.1416Z" fill="#009FDD"/>
<path d="M24.0818 29.1492C28.4166 29.1492 32.1345 30.2514 33.7302 31.806C34.2756 30.6748 34.5569 29.4345 34.5528 28.1786C34.5528 23.0378 29.8643 18.6289 24.0818 18.6289C18.2993 18.6289 13.6108 23.0378 13.6108 28.1786C13.6107 29.434 13.8918 30.6735 14.4334 31.806C16.0291 30.2514 19.747 29.1492 24.0818 29.1492Z" fill="#00A1DE"/>
<path d="M24.0736 29.1646C28.4084 29.1646 32.1099 30.2504 33.6974 31.7968C34.2401 30.6763 34.5213 29.4473 34.5199 28.2023C34.5199 23.1025 29.8397 18.7266 24.0654 18.7266C18.2911 18.7266 13.6273 23.1025 13.6273 28.2023C13.6291 29.4469 13.9101 30.6753 14.4499 31.7968C16.0456 30.2504 19.7553 29.1646 24.0736 29.1646Z" fill="#00A3DF"/>
<path d="M24.0735 29.1742C28.3919 29.1742 32.0851 30.2517 33.6726 31.7816C34.2168 30.6734 34.4982 29.4547 34.4952 28.22C34.4952 23.1696 29.8313 18.8184 24.0735 18.8184C18.3157 18.8184 13.6602 23.1696 13.6602 28.22C13.6612 29.4542 13.9424 30.672 14.4827 31.7816C16.0702 30.2517 19.7716 29.1742 24.0735 29.1742Z" fill="#00A5E1"/>
<path d="M24.074 29.19C28.3759 29.19 32.0691 30.2511 33.6484 31.7728C34.1879 30.6746 34.4693 29.4676 34.471 28.2441C34.471 23.2348 29.8154 18.9082 24.074 18.9082C18.3327 18.9082 13.6853 23.243 13.6853 28.2441C13.687 29.4676 13.9683 30.6746 14.5078 31.7728C16.0871 30.2511 19.7803 29.19 24.074 29.19Z" fill="#00A7E2"/>
<path d="M24.0739 29.1995C28.3676 29.1995 32.0444 30.2606 33.6236 31.7576C34.163 30.6711 34.4444 29.4748 34.4462 28.2618C34.4462 23.3266 29.807 19 24.0821 19C18.3572 19 13.7263 23.3101 13.7263 28.2618C13.7281 29.4748 14.0095 30.6711 14.5489 31.7576C16.1117 30.3017 19.7885 29.1995 24.0739 29.1995Z" fill="#00A9E3"/>
<path d="M24.0739 29.2071C28.3511 29.2071 32.0197 30.26 33.5907 31.7406C34.1301 30.6687 34.4117 29.4858 34.4133 28.2859C34.4133 23.3506 29.7906 19.0898 24.0821 19.0898C18.3737 19.0898 13.751 23.3753 13.751 28.2859C13.7525 29.4858 14.0342 30.6687 14.5735 31.7406C16.1281 30.3011 19.7967 29.2071 24.0739 29.2071Z" fill="#00ABE5"/>
<path d="M24.0737 29.2229C28.3427 29.2229 31.9949 30.2593 33.5659 31.7317C34.105 30.6686 34.3867 29.4937 34.3885 28.3017C34.3885 23.4405 29.774 19.1797 24.082 19.1797C18.39 19.1797 13.7755 23.4405 13.7755 28.3017C13.7772 29.4937 14.059 30.6686 14.5981 31.7317C16.1527 30.3005 19.813 29.2229 24.0737 29.2229Z" fill="#00ADE6"/>
<path d="M24.0655 29.2314C28.3262 29.2314 31.9783 30.2595 33.5412 31.699C34.0767 30.6463 34.3584 29.4829 34.3637 28.3019C34.3637 23.49 29.7657 19.2539 24.0819 19.2539C18.3981 19.2539 13.8083 23.4982 13.8083 28.3019C13.814 29.4829 14.0957 30.6462 14.6309 31.699C16.169 30.3007 19.8211 29.2314 24.0655 29.2314Z" fill="#00AFE7"/>
<path d="M24.0654 29.2475C28.3179 29.2475 31.9536 30.2592 33.5082 31.7151C34.0468 30.6783 34.3289 29.5275 34.3307 28.3591C34.3307 23.5966 29.7409 19.377 24.0736 19.377C18.4063 19.377 13.8247 23.5966 13.8247 28.3591C13.8303 29.527 14.1122 30.677 14.6473 31.7151C16.1936 30.3003 19.8704 29.2475 24.0654 29.2475Z" fill="#00B2E9"/>
<path d="M24.0653 29.2562C28.3014 29.2562 31.9288 30.2597 33.4834 31.7238C34.0185 30.6946 34.3005 29.5525 34.3059 28.3925C34.3059 23.6793 29.7326 19.4844 24.0817 19.4844C18.4308 19.4844 13.8657 23.6793 13.8657 28.3925C13.8712 29.5525 14.1531 30.6946 14.6883 31.7238C16.21 30.3008 19.8703 29.2562 24.0653 29.2562Z" fill="#00B4EA"/>
<path d="M24.0658 29.2635C28.2855 29.2635 31.9047 30.2588 33.4593 31.6735C33.9931 30.6586 34.2752 29.5301 34.2818 28.3834C34.2818 23.7113 29.7167 19.541 24.0823 19.541C18.4479 19.541 13.891 23.7113 13.891 28.3834C13.8976 29.5301 14.1797 30.6586 14.7135 31.6735C16.2352 30.2999 19.8709 29.2635 24.0658 29.2635Z" fill="#00B6EB"/>
<path d="M24.0657 29.2801C28.2771 29.2801 31.8799 30.2672 33.4263 31.6655C33.9679 30.6535 34.2505 29.5231 34.2488 28.3753C34.2488 23.7526 29.6919 19.6152 24.0822 19.6152C18.4724 19.6152 13.9155 23.7279 13.9155 28.3753C13.9179 29.5226 14.2002 30.652 14.7381 31.6655C16.2516 30.3001 19.8707 29.2801 24.0657 29.2801Z" fill="#00B8ED"/>
<path d="M24.0575 29.2884C28.2607 29.2884 31.8634 30.2673 33.4016 31.6491C33.9353 30.6578 34.2177 29.5506 34.2241 28.4248C34.2241 23.8514 29.6754 19.7305 24.0739 19.7305C18.4724 19.7305 13.9402 23.8432 13.9402 28.4248C13.9466 29.5506 14.229 30.6578 14.7627 31.6491C16.268 30.3002 19.8707 29.2884 24.0575 29.2884Z" fill="#01BBEE"/>
<path d="M24.0574 29.3062C28.2523 29.3062 31.8386 30.2686 33.3768 31.634C33.9103 30.6544 34.1929 29.5579 34.1993 28.4425C34.1993 23.9185 29.6671 19.8223 24.082 19.8223C18.497 19.8223 13.9812 23.935 13.9812 28.4425C13.9876 29.5579 14.2702 30.6544 14.8037 31.634C16.2925 30.3015 19.8706 29.3062 24.0574 29.3062Z" fill="#11BDF0"/>
<path d="M24.0573 29.3138C28.2359 29.3138 31.8139 30.2679 33.3439 31.6251C33.8763 30.657 34.159 29.5714 34.1664 28.4666C34.1664 23.9837 29.6506 19.9121 24.082 19.9121C18.5134 19.9121 14.0059 23.9837 14.0059 28.4583C14.0122 29.566 14.2949 30.6544 14.8284 31.6251C16.309 30.3008 19.8706 29.3138 24.0573 29.3138Z" fill="#1AC0F1"/>
<path d="M24.0572 29.3214C28.2193 29.3214 31.7891 30.2673 33.319 31.608C33.8514 30.6518 34.1343 29.5768 34.1416 28.4824C34.1416 24.0489 29.634 20.002 24.0819 20.002C18.5297 20.002 14.0304 24.0489 14.0304 28.4824C14.0366 29.577 14.3196 30.6522 14.8529 31.608C16.3335 30.3002 19.8705 29.3214 24.0572 29.3214Z" fill="#1FC4F4"/>
<path d="M24.0572 29.3541C28.2193 29.3541 31.7809 30.2917 33.3026 31.6243C33.835 30.674 34.1179 29.6043 34.1251 28.5151C34.1251 24.1144 29.6258 20.084 24.0819 20.084C18.5379 20.084 14.0469 24.1144 14.0469 28.5151C14.0597 29.6035 14.3423 30.6718 14.8694 31.6243C16.3418 30.3 19.8705 29.3541 24.0572 29.3541Z" fill="#32C5F4"/>
<path d="M24.0572 29.3785C28.211 29.3785 31.7726 30.308 33.2944 31.6323C33.8227 30.6893 34.1056 29.6286 34.1169 28.5477C34.1169 24.1718 29.6258 20.166 24.0819 20.166C18.5379 20.166 14.0551 24.1718 14.0551 28.5477C14.0664 29.6286 14.3492 30.6893 14.8776 31.6323C16.3499 30.2998 19.9116 29.3785 24.0572 29.3785Z" fill="#3FC7F4"/>
<path d="M24.0571 29.4045C28.1698 29.4045 31.7643 30.3257 33.2778 31.6418C33.8095 30.7091 34.0927 29.6555 34.1003 28.5819C34.1003 24.2307 29.6175 20.2578 24.0818 20.2578C18.546 20.2578 14.0714 24.2307 14.0714 28.5819C14.0826 29.655 14.3656 30.7077 14.894 31.6418C16.3663 30.3011 19.9197 29.4045 24.0571 29.4045Z" fill="#4AC8F5"/>
<path d="M24.0571 29.4289C28.1698 29.4289 31.7478 30.3502 33.2696 31.658C33.7969 30.7295 34.0799 29.6824 34.0921 28.6146C34.0921 24.2963 29.6175 20.3398 24.09 20.3398C18.5625 20.3398 14.0961 24.2963 14.0961 28.6064C14.1072 29.6769 14.3903 30.7269 14.9186 31.658C16.3745 30.3502 19.9279 29.4289 24.0571 29.4289Z" fill="#54CAF5"/>
<path d="M24.0576 29.4772C28.1703 29.4772 31.7401 30.3903 33.2536 31.6899C33.7854 30.7692 34.0689 29.7261 34.0762 28.6629C34.0762 24.3775 29.6015 20.4375 24.0823 20.4375C18.563 20.4375 14.113 24.3528 14.113 28.6547C14.128 29.7168 14.4109 30.758 14.9356 31.6817C16.3833 30.3656 19.9284 29.4772 24.0576 29.4772Z" fill="#5CCCF5"/>
<path d="M24.0576 29.4779C28.1703 29.4779 31.7319 30.3909 33.2454 31.6823C33.7724 30.7656 34.0556 29.7291 34.0679 28.6718C34.0679 24.411 29.6015 20.5039 24.0905 20.5039C18.5795 20.5039 14.113 24.411 14.113 28.6553C14.1254 29.7126 14.4086 30.7491 14.9356 31.6658C16.3915 30.3909 19.9366 29.4779 24.0576 29.4779Z" fill="#64CDF6"/>
<path d="M24.0576 29.4773C28.1703 29.4773 31.7237 30.3739 33.2289 31.6571C33.756 30.7494 34.0393 29.7208 34.0515 28.6712C34.0515 24.4434 29.5933 20.5527 24.0905 20.5527C18.5877 20.5527 14.1377 24.4434 14.1377 28.6712C14.1399 29.7168 14.4089 30.7445 14.9191 31.6571C16.3997 30.4068 19.9448 29.4773 24.0576 29.4773Z" fill="#6CCFF6"/>
<path d="M24.0576 29.5365C28.1703 29.5365 31.7073 30.4331 33.2207 31.6998C33.7475 30.801 34.031 29.7804 34.0433 28.7387C34.0433 24.5355 29.5851 20.6777 24.0905 20.6777C18.5959 20.6777 14.113 24.5437 14.113 28.7387C14.1242 29.7806 14.4078 30.8014 14.9356 31.6998C16.4162 30.4331 19.9449 29.5365 24.0576 29.5365Z" fill="#73D1F6"/>
<path d="M24.0576 29.561C28.1703 29.561 31.699 30.4493 33.2043 31.716C33.7307 30.8231 34.0143 29.8079 34.0268 28.7714C34.0268 24.5928 29.5769 20.7598 24.0905 20.7598C18.6041 20.7598 14.113 24.5928 14.113 28.7714C14.1255 29.8079 14.4091 30.8231 14.9356 31.716C16.4244 30.4493 19.9531 29.561 24.0576 29.561Z" fill="#7AD2F7"/>
<path d="M24.0574 29.5854C28.1701 29.5854 31.6906 30.4738 33.1959 31.7241C33.7046 30.8347 33.9738 29.8286 33.9773 28.804C33.9773 24.6913 29.5356 20.8418 24.0574 20.8418C18.5793 20.8418 14.1869 24.6584 14.1869 28.804C14.1904 29.8286 14.4596 30.8347 14.9683 31.7241C16.4324 30.4738 19.9611 29.5854 24.0574 29.5854Z" fill="#81D4F7"/>
<path d="M24.0573 29.6099C28.1701 29.6099 31.6823 30.49 33.1793 31.732C33.7054 30.8569 33.9893 29.8577 34.0019 28.8367C34.0019 24.724 29.5602 20.9238 24.0902 20.9238C18.6203 20.9238 14.2197 24.7157 14.2197 28.8285C14.2322 29.8546 14.516 30.8593 15.0423 31.7403C16.4406 30.49 19.9611 29.6099 24.0573 29.6099Z" fill="#88D6F8"/>
<path d="M24.0573 29.6426C28.17 29.6426 31.6658 30.5145 33.1711 31.7483C33.6795 30.8708 33.9489 29.8753 33.9525 28.8611C33.9525 24.7484 29.519 21.0059 24.0819 21.0059C18.6449 21.0059 14.2114 24.7731 14.2114 28.8611C14.215 29.8753 14.4844 30.8708 14.9929 31.7483C16.457 30.5145 19.9692 29.6426 24.0573 29.6426Z" fill="#8ED8F8"/>
<path d="M24.0573 29.6666C28.17 29.6666 31.6576 30.4891 33.1546 31.7559C33.6772 30.8913 33.9611 29.9035 33.9771 28.8934C33.9771 24.8383 29.5518 21.0957 24.1066 21.0957C18.6614 21.0957 14.2361 24.8383 14.2361 28.8934C14.2482 29.9041 14.5323 30.8929 15.0586 31.7559C16.4652 30.5303 19.9774 29.6666 24.0573 29.6666Z" fill="#94DAF8"/>
<path d="M24.0574 29.693C28.1701 29.693 31.6495 30.5156 33.1054 31.7741C33.63 30.9164 33.9141 29.9333 33.9279 28.928C33.9279 24.8976 29.5026 21.1797 24.0574 21.1797C18.6122 21.1797 14.1869 24.8976 14.1869 28.928C14.1918 29.929 14.4614 30.9109 14.9683 31.7741C16.4736 30.5485 19.9776 29.693 24.0574 29.693Z" fill="#9BDCF9"/>
<path d="M24.0575 29.7175C28.1702 29.7175 31.6414 30.54 33.1055 31.782C33.6122 30.9278 33.8819 29.9539 33.8869 28.9607C33.8869 24.9549 29.4699 21.2617 24.0164 21.2617C18.5629 21.2617 14.1459 24.9632 14.1459 28.9607C14.1509 29.9539 14.4206 30.9278 14.9273 31.782C16.4819 30.5729 19.9859 29.7175 24.0575 29.7175Z" fill="#A1DDF9"/>
<path d="M24.0575 29.7419C28.1702 29.7419 31.6249 30.5645 33.1055 31.7901C33.612 30.9448 33.8819 29.9788 33.8869 28.9934C33.8869 25.0205 29.4781 21.3438 24.0164 21.3438C18.5547 21.3438 14.1459 25.0205 14.1459 28.9934C14.1518 29.9813 14.4215 30.9497 14.9273 31.7983C16.4983 30.5892 19.9941 29.7419 24.0575 29.7419Z" fill="#A7DFF9"/>
<path d="M24.0573 29.7664C28.17 29.7664 31.6164 30.5889 33.1052 31.8063C33.6253 30.9707 33.9095 30.0101 33.9278 29.0261C33.9278 25.0779 29.5272 21.4258 24.0573 21.4258C18.5873 21.4258 14.2361 25.0779 14.2361 29.0261C14.2536 30.0102 14.5379 30.9711 15.0586 31.8063C16.5063 30.6136 19.9939 29.7746 24.0573 29.7664Z" fill="#ADE1FA"/>
<path d="M24.0572 29.7986C28.1205 29.7986 31.6081 30.6212 33.1052 31.8139C33.6114 30.9835 33.8816 30.0308 33.8866 29.0583C33.8866 25.1348 29.4942 21.5156 24.0736 21.5156C18.6531 21.5156 14.2689 25.143 14.2689 29.0501C14.27 30.0246 14.5373 30.9803 15.0421 31.8139C16.5145 30.6294 20.002 29.7986 24.0572 29.7986Z" fill="#B3E3FA"/>
<path d="M24.0571 29.8231C28.1122 29.8231 31.5998 30.6456 33.1051 31.8219C33.6083 30.9997 33.8758 30.055 33.8783 29.091C33.8783 25.2004 29.4941 21.5977 24.0818 21.5977C18.6694 21.5977 14.2853 25.2004 14.2853 29.0828C14.2905 30.0526 14.5608 31.0026 15.0667 31.8301C16.5226 30.6538 20.0102 29.8231 24.0571 29.8231Z" fill="#B8E5FA"/>
<path d="M24.0576 29.8479C28.1128 29.8479 31.5839 30.6704 33.1056 31.8384C33.6115 31.02 33.8819 30.0779 33.887 29.1158C33.887 25.2581 29.5029 21.7129 24.0988 21.7129C18.6947 21.7129 14.3187 25.291 14.3187 29.1158C14.3252 30.0766 14.5924 31.0176 15.0919 31.8384C16.5807 30.6704 20.0107 29.8479 24.0576 29.8479Z" fill="#BEE7FB"/>
<path d="M24.057 29.8728C28.104 29.8728 31.5751 30.6954 33.0557 31.8469C33.5551 31.0352 33.8225 30.1021 33.8289 29.149C33.8289 25.3159 29.4529 21.7461 24.057 21.7461C18.6612 21.7461 14.2935 25.3077 14.2935 29.149C14.296 30.1026 14.5637 31.0367 15.0666 31.8469C16.5801 30.6954 20.0184 29.8728 24.057 29.8728Z" fill="#C4E9FB"/>
<path d="M24.0571 29.8984C28.0958 29.8984 31.5669 30.7209 33.0393 31.8643C33.5413 31.0597 33.8091 30.1311 33.8125 29.1828C33.8125 25.3827 29.4448 21.8457 24.0571 21.8457C18.6695 21.8457 14.3018 25.3827 14.3018 29.1828C14.3094 30.1305 14.5769 31.058 15.075 31.8643C16.5802 30.7127 20.0266 29.9066 24.0571 29.8984Z" fill="#CAEBFC"/>
<path d="M24.0576 29.9311C28.0963 29.9311 31.5592 30.7536 33.0316 31.8723C33.5296 31.075 33.7973 30.1555 33.8048 29.2155C33.8048 25.44 29.4371 21.9277 24.0576 21.9277C18.6782 21.9277 14.3187 25.44 14.3187 29.2155C14.3263 30.1555 14.5939 31.075 15.0919 31.8723C16.5807 30.7372 20.0272 29.9311 24.0576 29.9311Z" fill="#CFEDFC"/>
<path d="M24.0569 29.9551C28.0874 29.9551 31.5421 30.7777 33.0145 31.8799C33.5121 31.0916 33.7799 30.18 33.7876 29.2477C33.7876 25.4969 29.4282 22.0176 24.0569 22.0176C18.6857 22.0176 14.3345 25.5052 14.3345 29.2477C14.3404 30.1817 14.6052 31.0956 15.0995 31.8881C16.58 30.753 20.0347 29.9551 24.0569 29.9551Z" fill="#D5EFFC"/>
<path d="M24.057 29.9796C28.0792 29.9796 31.5339 30.8021 33.0063 31.8961C33.5017 31.1133 33.7668 30.2068 33.7712 29.2804C33.7712 25.5625 29.42 22.0996 24.057 22.0996C18.694 22.0996 14.3428 25.5625 14.3428 29.2804C14.3497 30.2076 14.6176 31.1142 15.116 31.8961C16.5801 30.7692 20.043 29.9796 24.057 29.9796Z" fill="#DAF1FD"/>
<path d="M24.0575 30.004C28.0798 30.004 31.5262 30.8266 32.9904 31.9041C33.4875 31.1307 33.7556 30.2324 33.7636 29.3131C33.7636 25.6199 29.4123 22.1816 24.0575 22.1816C18.7028 22.1816 14.3597 25.6199 14.3597 29.3049C14.3637 30.2262 14.629 31.1275 15.1247 31.9041C16.5806 30.7937 20.0517 30.004 24.0575 30.004Z" fill="#E0F3FD"/>
<path d="M24.0574 30.0285C28.0714 30.0285 31.5097 30.8099 32.982 31.9203C33.4716 31.147 33.7364 30.2527 33.747 29.3375C33.747 25.6854 29.404 22.2637 24.0574 22.2637C18.7109 22.2637 14.3761 25.6854 14.3761 29.3375C14.3814 30.2535 14.6466 31.1492 15.1411 31.9203C16.5805 30.8099 20.0516 30.0367 24.0574 30.0285Z" fill="#E6F5FD"/>
<path d="M24.0574 30.0612C28.0632 30.0612 31.5014 30.8344 32.9656 31.9284C33.4597 31.1662 33.7251 30.2785 33.7305 29.3702C33.7305 25.7428 29.3957 22.3457 24.0574 22.3457C18.7191 22.3457 14.3843 25.7428 14.3843 29.3702C14.3933 30.278 14.6585 31.1647 15.1493 31.9284C16.6216 30.8344 20.0598 30.0612 24.0574 30.0612Z" fill="#EBF7FE"/>
<path d="M24.0574 30.0871C28.0632 30.0871 31.4603 30.8521 32.9491 31.9379C33.4454 31.1855 33.7139 30.3058 33.7223 29.4044C33.7223 25.8017 29.3875 22.4375 24.0574 22.4375C18.7273 22.4375 14.4008 25.8017 14.4008 29.4044C14.407 30.3075 14.6725 31.1897 15.1657 31.9461C16.6298 30.8521 20.0681 30.0871 24.0574 30.0871Z" fill="#F1FAFE"/>
<path d="M24.0573 30.1116C28.0549 30.1116 31.4602 30.8766 32.9408 31.9541C33.4299 31.2049 33.6953 30.3318 33.7058 29.4371C33.7058 25.8673 29.3792 22.5195 24.0573 22.5195C18.7355 22.5195 14.4171 25.8673 14.4171 29.4371C14.4247 30.331 14.6872 31.2042 15.1739 31.9541C16.638 30.8766 20.068 30.1116 24.0573 30.1116Z" fill="#F7FCFE"/>
<path d="M24.0573 30.1368C28.0466 30.1368 31.4602 30.8935 32.9243 31.9628C33.412 31.2313 33.6776 30.3743 33.6892 29.4952C33.6892 25.95 29.3709 22.627 24.0573 22.627C18.7436 22.627 14.4253 25.9171 14.4253 29.4952C14.4369 30.3743 14.7026 31.2313 15.1903 31.9628C16.6462 30.8935 20.0762 30.1368 24.0573 30.1368Z" fill="white"/>
</g>
<path d="M23.9833 26.5987C20.7797 26.5703 17.5965 27.1106 14.5817 28.1945C15.3905 30.0125 16.709 31.5571 18.3777 32.6411C20.0463 33.7251 21.9935 34.302 23.9833 34.302C25.9732 34.302 27.9203 33.7251 29.589 32.6411C31.2576 31.5571 32.5762 30.0125 33.385 28.1945C30.3702 27.1106 27.1869 26.5703 23.9833 26.5987Z" fill="#0083CA"/>
</svg>
