<svg width="48" height="48" viewBox="0 0 48 48" fill="none" xmlns="http://www.w3.org/2000/svg">
<rect width="48" height="48" rx="16" fill="#E72410"/>
<rect x="0.75" y="0.75" width="46.5" height="46.5" rx="15.25" stroke="#27272A" stroke-opacity="0.1" stroke-width="1.5"/>
<g clip-path="url(#clip0_989_26835)">
<path d="M8.44387 23.8086C8.4318 23.8124 8.4212 23.8199 8.41349 23.8299C8.40577 23.84 8.40131 23.8522 8.40071 23.8648C8.4001 23.8775 8.40338 23.89 8.41009 23.9007C8.41681 23.9115 8.42665 23.9199 8.43829 23.9249L13.2518 27.1039L14.6307 20.6152L8.44387 23.8086Z" fill="white"/>
<path d="M36.945 20.6133H35.7278C35.6526 20.6163 35.5787 20.6341 35.5104 20.6659L29.4096 23.8098C29.3974 23.8134 29.3867 23.8206 29.3788 23.8306C29.3709 23.8405 29.3663 23.8527 29.3656 23.8653C29.3649 23.878 29.3681 23.8906 29.3749 23.9013C29.3816 23.9121 29.3915 23.9205 29.4032 23.9253L34.1411 27.039C34.2051 27.0775 34.2776 27.0994 34.3522 27.1028H35.5685C35.6315 27.1028 35.6402 27.0741 35.5884 27.0398L30.7574 23.8608L36.9577 20.6667C37.0135 20.6372 37.0087 20.6133 36.945 20.6133Z" fill="white"/>
<path d="M34.3382 20.6133H25.8574L24.4794 27.1044H32.9586C33.0216 27.1044 33.0303 27.0757 32.9777 27.0406L28.1546 23.8624L34.351 20.6667C34.4068 20.6372 34.4012 20.6133 34.3382 20.6133Z" fill="white"/>
<path d="M39.548 20.6133H38.3317C38.2565 20.6162 38.1825 20.634 38.1143 20.6659L32.0135 23.8098C32.0013 23.8134 31.9905 23.8206 31.9827 23.8306C31.9748 23.8405 31.9702 23.8527 31.9695 23.8653C31.9688 23.878 31.972 23.8906 31.9787 23.9013C31.9855 23.9121 31.9954 23.9205 32.0071 23.9253L36.7402 27.039C36.8042 27.0775 36.8767 27.0993 36.9513 27.1028H38.1684C38.2314 27.1028 38.2401 27.0741 38.1875 27.0398L33.3565 23.8608L39.5576 20.6667C39.6173 20.6372 39.6118 20.6133 39.548 20.6133Z" fill="white"/>
<path d="M33.9623 16.3672H13.9992C12.884 16.3672 12.105 17.0689 11.921 17.9356C11.8722 18.1556 11.8884 18.3851 11.9676 18.596C12.0468 18.807 12.1856 18.9905 12.3671 19.124L19.54 23.8595H19.5456L33.975 16.4206C34.0316 16.3919 34.026 16.3672 33.9623 16.3672Z" fill="white"/>
<path d="M30.7956 31.2888L19.546 23.8594H19.5412L10.353 28.5964C9.86393 28.8848 9.50389 29.3086 9.40273 29.7849C9.21713 30.6492 9.69825 31.3517 10.8134 31.3517H30.7765C30.8402 31.3517 30.8482 31.3238 30.7956 31.2888Z" fill="white"/>
</g>
<defs>
<clipPath id="clip0_989_26835">
<rect width="31.2" height="14.9847" fill="white" transform="translate(8.40002 16.3672)"/>
</clipPath>
</defs>
</svg>
