<svg width="48" height="48" viewBox="0 0 48 48" fill="none" xmlns="http://www.w3.org/2000/svg">
<rect width="48" height="48" rx="16" fill="#0055A2"/>
<rect x="0.75" y="0.75" width="46.5" height="46.5" rx="15.25" stroke="#27272A" stroke-opacity="0.1" stroke-width="1.5"/>
<path d="M17.69 12.2968C17.3603 12.4604 17.0665 12.6881 16.8257 12.9665C16.5849 13.2448 16.4019 13.5684 16.2873 13.9182L11.8047 27.382C11.5702 28.0873 11.6253 28.8568 11.9581 29.5214C12.2908 30.1859 12.8739 30.6911 13.5791 30.9258L28.2721 35.8589C28.977 36.0911 29.7451 36.0348 30.4087 35.7023C31.0722 35.3698 31.5772 34.7882 31.8132 34.0845L36.2939 20.6207C36.5275 19.9155 36.4723 19.1466 36.1402 18.4821C35.8082 17.8176 35.2264 17.3118 34.5222 17.0753L19.8292 12.1465C19.4805 12.0285 19.1118 11.981 18.7445 12.0068C18.3773 12.0326 18.0188 12.1312 17.69 12.2968Z" fill="white"/>
<path d="M21.6029 13.7694C24.1734 14.7224 26.0499 17.4681 25.8675 20.4616C25.8029 21.5774 25.4599 22.6592 24.8698 23.6084C24.0605 22.7021 23.048 22.0005 21.9153 21.561L21.2587 21.3032V27.548L21.9248 27.2895C23.0555 26.8457 24.0647 26.1399 24.8694 25.2302C25.6571 26.4929 26.0054 27.9805 25.8602 29.4616C25.715 30.9427 25.0843 32.3343 24.0663 33.4199L24.0728 33.4149L24.0663 33.4226L13.8717 30.0134C13.4099 29.8614 13.0269 29.5329 12.8065 29.0996C12.5861 28.6662 12.5462 28.1633 12.6954 27.7006L17.1895 14.2275C17.3364 13.7704 17.6589 13.3903 18.086 13.1709C18.5131 12.9514 19.0099 12.9106 19.4671 13.0573L19.4816 13.0623L21.6029 13.7694Z" fill="#0092D8"/>
<path d="M18.9735 27.9251H17.9647V20.9297H18.9735V27.9251Z" fill="white"/>
<path d="M24.2812 24.419C23.7134 23.742 23.0172 23.184 22.2327 22.7773V26.0661C23.0166 25.6563 23.7126 25.0967 24.2812 24.419Z" fill="#E43D30"/>
<path d="M34.1977 17.9716L24.8363 14.8477C26.0133 16.1313 26.7211 17.7756 26.8443 19.5129C26.9675 21.2501 26.4988 22.9779 25.5147 24.4148C26.4748 25.8046 26.9514 27.4716 26.8711 29.1589C26.7908 30.8463 26.1581 32.4604 25.0703 33.7528L28.5847 34.9264C28.8115 35.001 29.0509 35.0301 29.289 35.0121C29.5271 34.9941 29.7593 34.9293 29.9724 34.8216C30.1855 34.7138 30.3752 34.5651 30.5308 34.3839C30.6864 34.2028 30.8048 33.9927 30.8791 33.7658V33.7609L35.3732 20.2886C35.5225 19.8254 35.4827 19.322 35.2625 18.888C35.0424 18.454 34.6596 18.1246 34.1977 17.9716ZM31.712 27.9054H30.4501L27.8497 24.4148L30.4929 20.9157H31.774L29.1216 24.4148L31.712 27.9054Z" fill="#004B9D"/>
</svg>
