<svg width="48" height="48" viewBox="0 0 48 48" fill="none" xmlns="http://www.w3.org/2000/svg">
<rect width="48" height="48" rx="16" fill="#0046FF"/>
<rect x="0.75" y="0.75" width="46.5" height="46.5" rx="15.25" stroke="#27272A" stroke-opacity="0.1" stroke-width="1.5"/>
<mask id="mask0_989_26727" style="mask-type:luminance" maskUnits="userSpaceOnUse" x="13" y="13" width="22" height="22">
<path d="M21.5624 33.154C20.3711 33.0368 18.9474 32.6619 17.7056 31.5857C16.5628 30.6025 15.8565 29.2473 15.513 28.0519C15.1623 26.8312 15.0148 25.4074 15.5948 25.5205C15.7736 25.5529 16.0828 26.338 16.4173 26.908C16.7639 27.4961 17.0448 27.8235 17.3075 28.0236C17.4277 28.1135 17.8349 27.2091 18.428 26.6927C18.7726 26.4057 19.1454 26.3097 19.2121 27.1596C19.2828 28.1984 19.0959 29.4363 19.4011 29.4363C19.6799 29.4363 20.3226 29.2231 21.7281 29.1028C22.2585 29.0584 22.5617 29.1584 22.0565 29.8668C21.8038 30.2225 21.4684 30.7227 20.6702 31.2977C21.8655 32.4174 23.2983 32.2809 23.3255 32.7569C23.3417 33.0318 22.8072 33.1833 22.106 33.1833C21.9332 33.1833 21.7503 33.1732 21.5624 33.153M25.5848 23.0933C24.4906 22.8649 24.2662 21.8715 24.2662 21.8715C24.1763 21.5209 24.1551 21.0783 24.2289 20.5134C24.3764 19.3331 24.6957 18.7813 25.0574 17.8658C25.5454 16.638 24.3612 15.9195 24.5542 15.4699C24.822 14.8595 25.6667 15.6356 26.6135 15.6932C27.4268 15.7366 27.9159 15.6982 28.5474 15.7831C29.3881 15.8933 30.3955 16.1793 30.8431 16.7047C31.2523 17.1867 30.6238 17.7718 29.8731 17.406C29.3214 17.1372 28.6282 17.3009 29.0344 17.8759C29.5235 18.4216 29.7579 18.4368 30.2601 18.5671C31.6353 18.9309 31.6635 20.2507 30.7299 20.9297C29.674 21.7058 28.5959 21.3834 28.1695 19.8636C27.9533 19.1037 27.4198 18.7187 26.8681 18.9349C26.3245 19.1492 26.6468 20.1476 27.0631 21.0742C27.7815 22.9103 26.3285 23.1034 25.7708 23.1034C25.6829 23.1034 25.6182 23.0993 25.5859 23.0953M24.7957 33.4996C24.7866 33.2571 25.1413 33.1955 25.1413 33.1955C28.3372 32.5649 27.4026 30.4691 26.2729 29.4009C25.797 28.9533 21.3512 25.1143 21.3512 25.1143C17.1114 21.4623 17.4509 18.6146 17.4509 18.6146C17.6601 15.1061 20.7257 14.236 23.0497 14.4391C23.3215 14.4624 23.4741 14.6251 23.4225 14.8555C23.374 15.103 23.0133 15.1192 23.0133 15.1192C22.2737 15.1627 21.6129 15.2364 21.1107 15.577C19.2404 16.8371 19.7881 18.9784 22.2848 21.3632C22.6001 21.6613 22.9335 21.9797 23.2781 22.302C23.2781 22.302 23.7752 22.7436 24.7765 23.6915C26.6973 25.4599 27.7471 26.4128 27.7471 26.4128C31.1321 29.2312 29.9731 31.809 28.6828 32.7023C27.6946 33.3864 26.6034 33.7068 25.1696 33.7846L25.1332 33.7866C25.0028 33.7866 24.8048 33.7068 24.7967 33.4996M23.5074 13.2103C17.552 13.4791 12.9414 18.5297 13.2112 24.4878C13.481 30.4448 18.5311 35.0568 24.4875 34.788C30.4419 34.5192 35.0576 29.4707 34.7888 23.5126C34.5281 17.7183 29.7478 13.2002 24.0035 13.1992C23.8398 13.1992 23.6741 13.2033 23.5084 13.2103" fill="white"/>
</mask>
<g mask="url(#mask0_989_26727)">
<path d="M12.9446 13.1973H35.0597V35.0549H12.9446V13.1973Z" fill="white"/>
</g>
</svg>
