<svg width="48" height="48" viewBox="0 0 48 48" fill="none" xmlns="http://www.w3.org/2000/svg">
<rect width="48" height="48" rx="16" fill="#0064FF"/>
<rect x="0.75" y="0.75" width="46.5" height="46.5" rx="15.25" stroke="#27272A" stroke-opacity="0.1" stroke-width="1.5"/>
<path d="M25.3065 17.7756L26.3019 13.0105C26.3131 12.955 26.3105 12.8976 26.2944 12.8434C26.2784 12.7892 26.2493 12.7399 26.2099 12.6999C26.1704 12.6598 26.1218 12.6304 26.0684 12.6141C26.015 12.5978 25.9584 12.5952 25.9037 12.6065C24.3736 12.8875 22.8806 13.347 21.4544 13.9758C14.7445 16.8616 10.6809 22.5156 12.3905 26.6155C13.6783 29.6805 17.8475 30.9881 22.695 30.227L21.6974 34.9887C21.6862 35.0442 21.6887 35.1016 21.7048 35.1558C21.7209 35.21 21.7499 35.2593 21.7894 35.2994C21.8288 35.3394 21.8774 35.3688 21.9308 35.3851C21.9843 35.4014 22.0408 35.404 22.0955 35.3927C23.6258 35.1106 25.119 34.6512 26.5459 34.0234C33.2671 31.1353 37.3183 25.4802 35.6088 21.3825C34.3232 18.3222 30.154 17.0157 25.3065 17.7756Z" fill="white"/>
</svg>
