<svg width="48" height="48" viewBox="0 0 48 48" fill="none" xmlns="http://www.w3.org/2000/svg">
<rect width="48" height="48" rx="16" fill="#FDBB2F"/>
<rect x="0.75" y="0.75" width="46.5" height="46.5" rx="15.25" stroke="#27272A" stroke-opacity="0.1" stroke-width="1.5"/>
<g clip-path="url(#clip0_989_26716)">
<path d="M28.4434 13.1992L24.1363 15.3391L19.8352 13.1992L24.1363 21.2981L28.4434 13.1992Z" fill="white"/>
<path d="M29.9491 19.456L29.8822 19.4019L32.9544 18.1258V13.8672L27.6343 16.1033C27.6343 16.1033 24.7416 21.5206 24.6777 21.644C25.815 21.7768 26.8579 22.3345 27.5932 23.2031C28.3285 24.0716 28.7007 25.1853 28.6334 26.3164C28.5662 27.4474 28.0647 28.5103 27.2316 29.2876C26.3984 30.0649 25.2966 30.4978 24.1515 30.4978C23.0064 30.4978 21.9046 30.0649 21.0714 29.2876C20.2383 28.5103 19.7368 27.4474 19.6696 26.3164C19.6024 25.1853 19.9745 24.0716 20.7098 23.2031C21.4451 22.3345 22.4881 21.7768 23.6253 21.644L20.6748 16.1033L15.3273 13.8672V18.1408L18.3965 19.4169L18.3295 19.4711C16.9742 20.6413 16.0121 22.1929 15.5718 23.9185C15.1315 25.6442 15.2339 27.4617 15.8655 29.1282C16.4971 30.7947 17.6276 32.2308 19.1061 33.2445C20.5846 34.2583 22.3405 34.8015 24.1393 34.8015C25.9382 34.8015 27.6941 34.2583 29.1726 33.2445C30.6511 32.2308 31.7816 30.7947 32.4132 29.1282C33.0447 27.4617 33.1472 25.6442 32.7069 23.9185C32.2666 22.1929 31.3045 20.6413 29.9491 19.4711V19.456Z" fill="white"/>
</g>
<defs>
<clipPath id="clip0_989_26716">
<rect width="17.6727" height="21.6" fill="white" transform="translate(15.3 13.1992)"/>
</clipPath>
</defs>
</svg>
