<svg width="48" height="48" viewBox="0 0 48 48" fill="none" xmlns="http://www.w3.org/2000/svg">
<rect width="48" height="48" rx="16" fill="#008485"/>
<rect x="0.75" y="0.75" width="46.5" height="46.5" rx="15.25" stroke="#27272A" stroke-opacity="0.1" stroke-width="1.5"/>
<path d="M27.6866 26.7293C27.6335 26.4001 27.5394 26.079 27.4064 25.7733C27.0265 24.8582 26.3643 24.0882 25.5164 23.5756C24.8518 23.1764 24.0901 22.9679 23.3149 22.9727C22.5396 22.9776 21.7806 23.1956 21.121 23.603C20.5074 23.9719 20.0088 24.5046 19.6816 25.1414C19.5735 25.3589 19.4834 25.585 19.4123 25.8172C19.2112 26.421 19.1338 27.0591 19.1848 27.6935C19.2357 28.3278 19.4141 28.9454 19.709 29.5093C19.9115 29.8558 20.2224 30.1261 20.5936 30.2785C20.7776 30.3545 20.977 30.3862 21.1755 30.3709C21.374 30.3556 21.5662 30.2939 21.7364 30.1906C21.9265 30.0436 22.0687 29.8435 22.145 29.6156C22.2213 29.3877 22.2282 29.1423 22.1649 28.9105C22.015 28.3226 22.0302 27.7047 22.2089 27.1248C22.2751 26.9355 22.382 26.763 22.5221 26.6194C22.6109 26.5339 22.7129 26.4634 22.8243 26.4106C23.0581 26.2919 23.3233 26.2497 23.5825 26.2897C23.8039 26.3378 24.0109 26.4375 24.1866 26.5807C24.3623 26.7239 24.5017 26.9066 24.5934 27.1138C24.7727 27.5324 24.8661 27.9827 24.8681 28.438C24.8753 30.4434 24.579 32.4385 23.989 34.3552C23.9396 34.553 23.8846 34.7453 23.8297 34.9376C23.7748 35.1299 23.7088 35.2783 23.8297 35.4266C23.8753 35.4857 23.936 35.5312 24.0055 35.5585C24.3022 35.6793 24.5549 35.498 24.7362 35.3002C25.8554 34.1041 26.6795 32.6629 27.1427 31.0917C27.3351 30.5145 27.4892 29.9254 27.6042 29.328C27.7827 28.4677 27.8124 27.5831 27.6921 26.7128" fill="white"/>
<path d="M35.978 17.6026C35.9753 17.5343 35.9587 17.4671 35.9293 17.4054C35.8999 17.3436 35.8582 17.2884 35.8069 17.2432C35.7555 17.198 35.6955 17.1637 35.6305 17.1424C35.5654 17.121 35.4968 17.1131 35.4286 17.1191C35.1452 17.1598 34.8704 17.2471 34.6155 17.3774C29.5223 19.3113 23.7809 19.6794 18.413 18.9048C17.4955 18.7729 16.5669 18.5916 15.6659 18.4432C15.1165 18.3553 14.5176 18.2235 13.9352 18.1795C13.4111 18.0781 12.8681 18.1824 12.4188 18.4707C12.1868 18.7238 12.0428 19.045 12.0081 19.3866C11.9735 19.7281 12.0501 20.0717 12.2265 20.3662C12.6197 21.0382 13.1899 21.5893 13.8748 21.9596C14.5074 22.4102 15.2579 22.6661 16.034 22.6958C18.0834 22.5694 20.1327 22.3661 22.1711 22.1024C25.6489 21.6519 29.3135 21.2233 32.5551 19.8772C33.6402 19.4494 34.6623 18.8765 35.5934 18.174C35.7583 18.0477 36 17.8389 36 17.6246" fill="white"/>
<path d="M21.3691 15.8572C21.396 16.3702 21.6187 16.8533 21.9914 17.2069C22.364 17.5605 22.8581 17.7576 23.3718 17.7576C23.8855 17.7576 24.3796 17.5605 24.7522 17.2069C25.1248 16.8533 25.3475 16.3702 25.3744 15.8572C25.376 15.692 25.3403 15.5286 25.27 15.3792C25.0997 15.0111 24.9019 14.8297 24.9239 14.4012C24.9239 13.8133 24.1932 13.8023 23.7866 13.8023C23.3344 13.7876 22.8849 13.8779 22.4735 14.0661C22.1495 14.2308 21.8763 14.4803 21.6828 14.7879C21.4893 15.0955 21.3828 15.4499 21.3746 15.8132V15.8572" fill="white"/>
</svg>
