<svg width="48" height="48" viewBox="0 0 48 48" fill="none" xmlns="http://www.w3.org/2000/svg">
<rect width="48" height="48" rx="16" fill="#7C7266"/>
<rect x="0.75" y="0.75" width="46.5" height="46.5" rx="15.25" stroke="#27272A" stroke-opacity="0.1" stroke-width="1.5"/>
<g clip-path="url(#clip0_989_26722)">
<path d="M35.6137 24.2178L35.4049 24.091C34.6963 23.4049 33.7085 23.1069 32.3932 23.1805C31.297 23.2464 30.4267 23.6687 29.7625 24.0682C29.7625 24.058 29.7625 24.0479 29.7625 24.0377C29.77 23.6875 29.7957 23.3379 29.8394 22.9902C29.8846 22.6367 29.9107 22.2812 29.9177 21.925C29.9297 21.5949 29.8733 21.2659 29.752 20.9574C29.7372 20.9212 29.7111 20.8904 29.6774 20.8693C29.6437 20.8482 29.6041 20.8377 29.5641 20.8394C29.2092 20.8471 28.5202 21.0829 28.3492 21.2262L28.2579 21.4203C28.2579 21.8007 28.1665 22.8672 28.0791 22.9966L28.0321 23.1234C27.8838 24.4551 27.879 25.7981 28.0178 27.1308C28.0334 27.2449 28.2605 27.4186 28.4367 27.4808C28.6128 27.5429 29.2313 27.3933 29.5785 27.2652L29.7089 27.2462C29.7353 27.2426 29.7606 27.234 29.7835 27.2208C29.8064 27.2076 29.8263 27.1901 29.8421 27.1693C29.8579 27.1485 29.8693 27.1248 29.8755 27.0997C29.8818 27.0746 29.8828 27.0485 29.8786 27.023L29.8851 26.692C30.137 25.7003 31.1535 24.5196 32.354 24.3408C33.0339 24.2368 33.5702 24.4042 33.993 24.8481C34.0504 24.928 34.1744 25.6407 33.732 26.4612C33.3979 27.0686 32.7324 27.5784 31.8555 27.8993C31.0256 28.2049 30.1122 28.3292 28.9847 28.2899L27.9238 27.5962C27.0313 26.9862 25.9208 26.2266 24.9121 25.855C24.7359 25.7903 24.4175 25.5342 24.2283 25.3807L24.1239 25.2983C23.5432 24.8443 22.438 24.129 21.5493 23.5546L21.0704 23.2426V23.145C21.0952 23.1183 21.6524 22.7937 21.6524 22.7937C22.4354 22.3498 22.7942 22.1317 22.8712 22.0188C22.8555 22.0366 22.9756 21.9592 22.9756 21.9592L24.9108 20.8952C26.7677 19.9023 28.8738 18.7762 29.9804 17.664L30.0339 17.4941L30.0574 17.3431C30.1301 17.1385 30.136 16.9171 30.0743 16.7091C30.0646 16.6744 30.0456 16.6429 30.0192 16.6177C29.9929 16.5925 29.9601 16.5746 29.9243 16.5658C29.0617 16.4833 27.9473 16.9855 26.9334 17.9087C26.7471 18.0764 26.537 18.2173 26.3096 18.3272L26.1544 18.4109C25.0374 19.0285 22.5189 20.5465 21.1957 21.367C21.3208 19.6992 21.5452 18.0397 21.8677 16.3971L21.8312 16.2018L21.7007 15.9482L21.5976 15.7719L21.5676 15.7643C21.4696 15.717 21.3629 15.6894 21.2537 15.683C21.1445 15.6767 21.0351 15.6918 20.9321 15.7275L20.6711 15.8201L20.3214 15.9469C20.2875 15.9533 20.2561 15.9685 20.2304 15.9908C20.2047 16.0131 20.1856 16.0418 20.1752 16.0737C19.5463 17.5524 19.0217 19.9872 18.9043 21.9301C17.9359 21.3397 16.9339 20.8032 15.9029 20.3233L15.886 20.3144L15.8168 20.3005C15.6133 20.2738 15.3627 20.128 15.1213 19.986L14.6437 19.6854L13.9169 19.2264C13.9247 19.2264 13.725 19.1845 13.725 19.1845C13.4106 19.2365 12.8116 19.6309 12.6302 19.8972C12.6076 19.9316 12.5962 19.9718 12.5976 20.0126C12.6007 20.0696 12.6116 20.1259 12.6302 20.18L12.6628 20.3246L12.6968 20.4121C13.0465 20.7608 13.9299 21.3429 14.7977 21.7969L15.8025 22.3143L17.3384 23.1348C17.3384 23.1412 17.5993 23.3364 17.5993 23.3364L17.7807 23.4379L17.812 23.4569L15.0195 25.2729L13.5541 26.2202C13.2796 26.3673 12.9969 26.4994 12.7072 26.6159C12.4276 26.7084 12.1923 26.8969 12.0456 27.146L12.0065 27.2284L12.0469 27.2829L12.1578 27.3654L12.3105 27.4618L12.471 27.5696L12.625 27.5924C12.886 27.6025 13.267 27.4592 13.9834 27.1549C14.6359 26.8708 16.4275 25.8246 17.1909 25.3794L17.5171 25.1892C17.6476 25.1994 17.8003 25.089 17.9321 24.9914C18.1478 24.835 18.3791 24.6999 18.6224 24.5881C18.6224 24.5881 18.7451 24.5234 18.8521 24.4613C18.8521 24.4955 18.8521 24.5475 18.8521 24.5475C18.886 26.8175 19.0217 28.4674 19.2762 29.7394V29.7635L19.3009 29.8142C19.4314 29.9943 19.5698 30.532 19.6924 31.0063L19.9834 31.9536C19.9834 31.965 20.0669 32.0436 20.0669 32.0436C20.2327 32.1514 20.7377 32.3404 21.0769 32.2972L21.1604 32.2871L21.214 32.1717C21.2417 32.0287 21.2548 31.8835 21.2531 31.738C21.2531 31.5642 21.24 31.3728 21.2231 31.1394L21.2009 30.797C21.0939 29.2182 20.9921 26.9279 20.9921 25.4061C20.9921 25.3642 20.9921 25.3262 20.9921 25.2793C21.2675 25.4492 22.481 26.1911 22.481 26.1911C24.5441 27.4909 27.6602 29.4566 29.5432 29.9765C29.5901 29.9908 29.6402 29.9928 29.6881 29.9821C29.736 29.9714 29.7802 29.9484 29.816 29.9156L30.1069 29.7343L30.1591 29.7127C30.2688 29.6633 30.3418 29.4857 30.3536 29.293C31.9417 29.2169 34.1561 28.6221 35.3397 27.1752C35.7646 26.6511 35.9987 26.0048 36.0052 25.3376C36.0052 24.857 35.8668 24.4397 35.6137 24.2115" fill="#F8B500"/>
</g>
<defs>
<clipPath id="clip0_989_26722">
<rect width="24" height="16.6154" fill="white" transform="translate(12 15.6914)"/>
</clipPath>
</defs>
</svg>
