<svg width="20" height="20" viewBox="0 0 20 20" fill="none" xmlns="http://www.w3.org/2000/svg">
<path d="M7.50008 1.66675V3.33341H12.5001V1.66675H14.1667V3.33341H17.5001C17.9603 3.33341 18.3334 3.70651 18.3334 4.16675V17.5001C18.3334 17.9603 17.9603 18.3334 17.5001 18.3334H2.50008C2.03985 18.3334 1.66675 17.9603 1.66675 17.5001V4.16675C1.66675 3.70651 2.03985 3.33341 2.50008 3.33341H5.83341V1.66675H7.50008ZM16.6667 10.0001H3.33341V16.6667H16.6667V10.0001ZM5.83341 5.00008H3.33341V8.33341H16.6667V5.00008H14.1667V6.66675H12.5001V5.00008H7.50008V6.66675H5.83341V5.00008Z" fill="#4F39F6"/>
</svg>
