<svg width="14" height="14" viewBox="0 0 14 14" fill="none" xmlns="http://www.w3.org/2000/svg">
<path d="M12.25 9.57833V11.6411C12.25 11.9473 12.0132 12.2014 11.7078 12.223C11.4526 12.241 11.2445 12.25 11.0833 12.25C5.92865 12.25 1.75 8.07135 1.75 2.91667C1.75 2.7555 1.75901 2.54734 1.77704 2.29221C1.79863 1.98676 2.05271 1.75 2.35892 1.75H4.42173C4.57146 1.75 4.69686 1.86341 4.71189 2.01238C4.72539 2.14612 4.73794 2.2535 4.74954 2.33451C4.86754 3.15859 5.10856 3.94296 5.45341 4.66843C5.50876 4.78488 5.47266 4.92426 5.36775 4.9992L4.10874 5.89855C4.87522 7.68897 6.31102 9.12479 8.10145 9.89129L8.99914 8.63444C9.07503 8.52827 9.21608 8.49176 9.33392 8.5477C10.0593 8.89227 10.8436 9.13302 11.6676 9.25073C11.7481 9.26228 11.8548 9.27471 11.9876 9.28812C12.1366 9.30317 12.25 9.42859 12.25 9.57833Z" fill="#8EC5FF"/>
</svg>
