<svg width="56" height="56" viewBox="0 0 56 56" fill="none" xmlns="http://www.w3.org/2000/svg">
<path d="M28 51.3327C40.8867 51.3327 51.3334 40.886 51.3334 27.9993C51.3334 15.1127 40.8867 4.66602 28 4.66602C15.1134 4.66602 4.66669 15.1127 4.66669 27.9993C4.66669 40.886 15.1134 51.3327 28 51.3327Z" fill="#155DFC"/>
<path d="M37.7055 17.0835C38.6885 16.084 40.2794 16.0843 41.2627 17.0835C42.2458 18.0832 42.2458 19.7006 41.2627 20.7002L24.4921 37.7513C24.0019 38.2496 23.3565 38.5007 22.7135 38.5007C22.0706 38.5005 21.425 38.2495 20.9349 37.7513L15.9037 32.636C14.921 31.6364 14.921 30.0188 15.9037 29.0193C16.8868 28.0198 18.4777 28.0201 19.4609 29.0193L22.7135 32.3263L37.7055 17.0835Z" fill="white"/>
</svg>
