<svg width="56" height="56" viewBox="0 0 56 56" fill="none" xmlns="http://www.w3.org/2000/svg">
<path d="M28 51.3332C40.8866 51.3332 51.3333 40.8865 51.3333 27.9998C51.3333 15.1132 40.8866 4.6665 28 4.6665C15.1133 4.6665 4.66666 15.1132 4.66666 27.9998C4.66666 40.8865 15.1133 51.3332 28 51.3332Z" fill="#4FC660"/>
<path d="M37.7055 17.083C38.6885 16.0835 40.2794 16.0838 41.2626 17.083C42.2457 18.0827 42.2458 19.7001 41.2626 20.6997L24.4921 37.7508C24.0019 38.2491 23.3565 38.5002 22.7135 38.5002C22.0706 38.5 21.4249 38.249 20.9349 37.7508L15.9037 32.6355C14.921 31.6359 14.9209 30.0183 15.9037 29.0188C16.8867 28.0193 18.4777 28.0196 19.4609 29.0188L22.7135 32.3258L37.7055 17.083Z" fill="white"/>
</svg>
