<svg width="56" height="56" viewBox="0 0 56 56" fill="none" xmlns="http://www.w3.org/2000/svg">
<path opacity="0.35" d="M50.7127 42.0587L32.0087 9.66037C31.1827 8.2277 29.652 7.3457 28 7.3457C26.348 7.3457 24.8173 8.2277 23.9913 9.66037L5.28735 42.0587C4.46135 43.4914 4.46135 45.253 5.28735 46.688C6.11335 48.1184 7.64168 49.0004 9.29601 49.0004H46.7063C48.3583 49.0004 49.889 48.1184 50.715 46.6857C51.541 45.253 51.541 43.4914 50.7127 42.0587Z" fill="#FB2C36"/>
<path d="M30.751 41.4071C30.751 42.2307 30.2727 44.3331 27.986 44.3331C25.6994 44.3331 25.249 42.2284 25.249 41.4071C25.249 40.6021 25.7577 38.4461 27.986 38.4461C30.2144 38.4461 30.751 40.6021 30.751 41.4071ZM25.4777 32.4774V22.3251C25.4777 20.9321 26.607 19.8027 28 19.8027C29.393 19.8027 30.5224 20.9321 30.5224 22.3251V32.4797C30.5224 33.8704 29.393 34.9997 28 34.9997C26.607 34.9997 25.4777 33.8704 25.4777 32.4774Z" fill="#FB2C36"/>
</svg>
