<svg width="56" height="56" viewBox="0 0 56 56" fill="none" xmlns="http://www.w3.org/2000/svg">
<path opacity="0.35" d="M28 51.3337C40.8866 51.3337 51.3333 40.887 51.3333 28.0003C51.3333 15.1137 40.8866 4.66699 28 4.66699C15.1133 4.66699 4.66666 15.1137 4.66666 28.0003C4.66666 40.887 15.1133 51.3337 28 51.3337Z" fill="#FF637E"/>
<path d="M34.5613 37.8352L18.165 21.4388C17.269 20.5428 17.269 19.0868 18.165 18.1908L18.1907 18.1652C19.0867 17.2692 20.5427 17.2692 21.4387 18.1652L37.835 34.5615C38.731 35.4575 38.731 36.9135 37.835 37.8095L37.8093 37.8352C36.9133 38.7312 35.4573 38.7312 34.5613 37.8352Z" fill="#FF637E"/>
<path d="M18.165 34.5615L34.5613 18.1652C35.4573 17.2692 36.9133 17.2692 37.8093 18.1652L37.835 18.1908C38.731 19.0868 38.731 20.5428 37.835 21.4388L21.4387 37.8352C20.5427 38.7312 19.0867 38.7312 18.1907 37.8352L18.165 37.8095C17.269 36.9135 17.269 35.4575 18.165 34.5615Z" fill="#FF637E"/>
</svg>
