<svg width="16" height="16" viewBox="0 0 16 16" fill="none" xmlns="http://www.w3.org/2000/svg">
<path d="M5.08322 4.49935V2.74935C5.08322 2.42719 5.34439 2.16602 5.66655 2.16602H12.6666C12.9887 2.16602 13.2499 2.42719 13.2499 2.74935V10.916C13.2499 11.2382 12.9887 11.4993 12.6666 11.4993H10.9166V13.2488C10.9166 13.5713 10.6541 13.8327 10.3293 13.8327H3.33722C3.01284 13.8327 2.75 13.5733 2.75 13.2488L2.75152 5.08319C2.75157 4.76075 3.01404 4.49935 3.33883 4.49935H5.08322ZM3.91808 5.66602L3.91678 12.666H9.74988V5.66602H3.91808ZM6.24988 4.49935H10.9166V10.3327H12.0832V3.33268H6.24988V4.49935Z" fill="#9F9FA9"/>
</svg>
