<svg width="18" height="18" viewBox="0 0 18 18" fill="none" xmlns="http://www.w3.org/2000/svg">
<path d="M2.24385 15.75C1.83304 15.75 1.5 15.4163 1.5 15.0049V2.99505C1.5 2.58357 1.84148 2.25 2.24385 2.25H15.7561C16.167 2.25 16.5 2.58371 16.5 2.99505V15.0049C16.5 15.4164 16.1585 15.75 15.7561 15.75H2.24385ZM15 11.25V3.75H3V14.25L10.5 6.75L15 11.25ZM15 13.3713L10.5 8.8713L5.12132 14.25H15V13.3713ZM6 8.25C5.17157 8.25 4.5 7.57845 4.5 6.75C4.5 5.92157 5.17157 5.25 6 5.25C6.82843 5.25 7.5 5.92157 7.5 6.75C7.5 7.57845 6.82843 8.25 6 8.25Z" fill="#9F9FA9"/>
</svg>
