<svg width="24" height="24" viewBox="0 0 24 24" fill="none" xmlns="http://www.w3.org/2000/svg">
<path d="M6.44119 4.72628C7.46877 4.36096 8.66025 4.58953 9.48273 5.41201C10.4168 6.3461 10.5849 7.75613 9.98692 8.8615L18.9108 17.7864L17.7323 18.9649L8.80818 10.0406C7.70271 10.639 6.29224 10.4711 5.35793 9.5368C4.53523 8.71409 4.30675 7.52217 4.67251 6.49439L6.53644 8.35829C7.0246 8.84644 7.81606 8.84644 8.30421 8.35829C8.79237 7.87013 8.79237 7.07868 8.30421 6.59052L6.44119 4.72628ZM15.0807 6.29589L17.7323 4.82276L18.9108 6.00127L17.4377 8.65292L15.9645 8.94754L14.1967 10.7153L13.0182 9.5368L14.786 7.76903L15.0807 6.29589ZM9.48273 13.0723L10.6613 14.2509L6.24182 18.6703C5.91638 18.9957 5.38874 18.9957 5.06331 18.6703C4.76112 18.368 4.73953 17.8915 4.99855 17.5645L5.06331 17.4918L9.48273 13.0723Z" fill="#52525C"/>
</svg>
