<svg width="24" height="24" viewBox="0 0 24 24" fill="none" xmlns="http://www.w3.org/2000/svg">
<path d="M17.0258 15.8473L20.5947 19.4162L19.4162 20.5947L15.8473 17.0258C14.564 18.0525 12.9366 18.6666 11.1666 18.6666C7.02663 18.6666 3.66663 15.3066 3.66663 11.1666C3.66663 7.02663 7.02663 3.66663 11.1666 3.66663C15.3066 3.66663 18.6666 7.02663 18.6666 11.1666C18.6666 12.9366 18.0525 14.564 17.0258 15.8473ZM15.3539 15.229C16.3729 14.1788 17 12.7463 17 11.1666C17 7.94371 14.3895 5.33329 11.1666 5.33329C7.94371 5.33329 5.33329 7.94371 5.33329 11.1666C5.33329 14.3895 7.94371 17 11.1666 17C12.7463 17 14.1788 16.3729 15.229 15.3539L15.3539 15.229Z" fill="#52525C"/>
</svg>
