<svg width="16" height="16" viewBox="0 0 16 16" fill="none" xmlns="http://www.w3.org/2000/svg">
<path d="M2.6665 14.6666C2.6665 11.7211 5.05432 9.33329 7.99984 9.33329C10.9454 9.33329 13.3332 11.7211 13.3332 14.6666H11.9998C11.9998 12.4575 10.209 10.6666 7.99984 10.6666C5.7907 10.6666 3.99984 12.4575 3.99984 14.6666H2.6665ZM7.99984 8.66663C5.78984 8.66663 3.99984 6.87663 3.99984 4.66663C3.99984 2.45663 5.78984 0.666626 7.99984 0.666626C10.2098 0.666626 11.9998 2.45663 11.9998 4.66663C11.9998 6.87663 10.2098 8.66663 7.99984 8.66663ZM7.99984 7.33329C9.47317 7.33329 10.6665 6.13996 10.6665 4.66663C10.6665 3.19329 9.47317 1.99996 7.99984 1.99996C6.5265 1.99996 5.33317 3.19329 5.33317 4.66663C5.33317 6.13996 6.5265 7.33329 7.99984 7.33329Z" fill="#030712"/>
</svg>
