<svg width="24" height="24" viewBox="0 0 24 24" fill="none" xmlns="http://www.w3.org/2000/svg">
<path d="M11.1666 11.1666V7.83329H12.8333V11.1666H16.1666V12.8333H12.8333V16.1666H11.1666V12.8333H7.83329V11.1666H11.1666ZM12 20.3333C7.39758 20.3333 3.66663 16.6023 3.66663 12C3.66663 7.39758 7.39758 3.66663 12 3.66663C16.6023 3.66663 20.3333 7.39758 20.3333 12C20.3333 16.6023 16.6023 20.3333 12 20.3333ZM12 18.6666C15.6819 18.6666 18.6666 15.6819 18.6666 12C18.6666 8.31806 15.6819 5.33329 12 5.33329C8.31806 5.33329 5.33329 8.31806 5.33329 12C5.33329 15.6819 8.31806 18.6666 12 18.6666Z" fill="#52525C"/>
</svg>
