<svg width="16" height="16" viewBox="0 0 16 16" fill="none" xmlns="http://www.w3.org/2000/svg">
<path d="M1.3335 7.99987C1.3335 7.42353 1.40663 6.86427 1.54413 6.33087C2.27098 6.36855 2.99248 6.00677 3.38136 5.33321C3.76994 4.66017 3.72287 3.85514 3.32764 3.24467C4.12252 2.46353 5.11238 1.88015 6.21752 1.57422C6.5483 2.22257 7.22236 2.66655 8.00016 2.66655C8.77796 2.66655 9.45203 2.22257 9.78283 1.57422C10.888 1.88015 11.8778 2.46353 12.6727 3.24467C12.2774 3.85514 12.2304 4.66017 12.619 5.33321C13.0078 6.00677 13.7294 6.36855 14.4562 6.33087C14.5937 6.86427 14.6668 7.42353 14.6668 7.99987C14.6668 8.5762 14.5937 9.13547 14.4562 9.66887C13.7294 9.6312 13.0078 9.993 12.619 10.6665C12.2304 11.3396 12.2774 12.1446 12.6727 12.7551C11.8778 13.5362 10.888 14.1196 9.78283 14.4255C9.45203 13.7772 8.77796 13.3332 8.00016 13.3332C7.22236 13.3332 6.5483 13.7772 6.21752 14.4255C5.11238 14.1196 4.12252 13.5362 3.32764 12.7551C3.72287 12.1446 3.76994 11.3396 3.38136 10.6665C2.99248 9.993 2.27098 9.6312 1.54413 9.66887C1.40663 9.13547 1.3335 8.5762 1.3335 7.99987ZM4.53606 9.99987C4.95613 10.7275 5.07655 11.5639 4.91228 12.3491C5.18414 12.5425 5.47353 12.7101 5.77676 12.8494C6.37467 12.3141 7.15963 11.9999 8.00016 11.9999C8.8407 11.9999 9.62563 12.3141 10.2236 12.8494C10.5268 12.7101 10.8162 12.5425 11.088 12.3491C10.9238 11.5639 11.0442 10.7275 11.4643 9.99987C11.8843 9.27233 12.5485 8.74987 13.3105 8.49953C13.3258 8.33433 13.3335 8.16773 13.3335 7.99987C13.3335 7.83207 13.3258 7.6654 13.3105 7.50027C12.5485 7.24993 11.8843 6.72747 11.4643 5.99988C11.0442 5.2723 10.9238 4.43585 11.088 3.6507C10.8162 3.45725 10.5268 3.28965 10.2236 3.15035C9.62563 3.68563 8.8407 3.99988 8.00016 3.99988C7.15963 3.99988 6.37467 3.68563 5.77676 3.15035C5.47353 3.28965 5.18414 3.45725 4.91228 3.6507C5.07655 4.43585 4.95613 5.2723 4.53606 5.99988C4.116 6.72747 3.45186 7.24993 2.68984 7.50027C2.67454 7.6654 2.66683 7.83207 2.66683 7.99987C2.66683 8.16773 2.67454 8.33433 2.68984 8.49953C3.45186 8.74987 4.116 9.27233 4.53606 9.99987ZM8.00016 9.99987C6.89556 9.99987 6.00016 9.10447 6.00016 7.99987C6.00016 6.89533 6.89556 5.99988 8.00016 5.99988C9.10476 5.99988 10.0002 6.89533 10.0002 7.99987C10.0002 9.10447 9.10476 9.99987 8.00016 9.99987ZM8.00016 8.66653C8.36836 8.66653 8.66683 8.36807 8.66683 7.99987C8.66683 7.63167 8.36836 7.3332 8.00016 7.3332C7.63196 7.3332 7.3335 7.63167 7.3335 7.99987C7.3335 8.36807 7.63196 8.66653 8.00016 8.66653Z" fill="#4A5565"/>
</svg>
