<svg width="16" height="16" viewBox="0 0 16 16" fill="none" xmlns="http://www.w3.org/2000/svg">
<path d="M7.99992 14.6668C4.31802 14.6668 1.33325 11.682 1.33325 8.00016C1.33325 4.31826 4.31802 1.3335 7.99992 1.3335C11.6818 1.3335 14.6666 4.31826 14.6666 8.00016C14.6666 11.682 11.6818 14.6668 7.99992 14.6668ZM7.99992 13.3335C10.9455 13.3335 13.3333 10.9457 13.3333 8.00016C13.3333 5.05464 10.9455 2.66683 7.99992 2.66683C5.0544 2.66683 2.66659 5.05464 2.66659 8.00016C2.66659 10.9457 5.0544 13.3335 7.99992 13.3335ZM7.33325 10.0002H8.66659V11.3335H7.33325V10.0002ZM8.66659 8.90356V9.3335H7.33325V8.3335C7.33325 7.9653 7.63172 7.66683 7.99992 7.66683C8.55219 7.66683 8.99992 7.2191 8.99992 6.66683C8.99992 6.11454 8.55219 5.66683 7.99992 5.66683C7.51479 5.66683 7.11032 6.01232 7.01912 6.47068L5.71146 6.20914C5.92417 5.13962 6.86792 4.3335 7.99992 4.3335C9.28859 4.3335 10.3333 5.37816 10.3333 6.66683C10.3333 7.72383 9.63039 8.6167 8.66659 8.90356Z" fill="#9F9FA9"/>
</svg>
