<svg width="24" height="24" viewBox="0 0 24 24" fill="none" xmlns="http://www.w3.org/2000/svg">
<path d="M21.4 18.6008C21.1 18.3008 19.5 16.7008 18.6 15.8008C17.9 16.9008 16.9 17.9008 15.8 18.6008C16.7 19.5008 18.3 21.1008 18.6 21.4008C19.4 22.2008 20.6 22.2008 21.4 21.4008C22.2 20.6008 22.2 19.4008 21.4 18.6008Z" fill="#9F9FA9"/>
<path opacity="0.35" d="M11 20C15.9706 20 20 15.9706 20 11C20 6.02944 15.9706 2 11 2C6.02944 2 2 6.02944 2 11C2 15.9706 6.02944 20 11 20Z" fill="#9F9FA9"/>
<path d="M14.5 11C15.3284 11 16 10.3284 16 9.5C16 8.67157 15.3284 8 14.5 8C13.6716 8 13 8.67157 13 9.5C13 10.3284 13.6716 11 14.5 11Z" fill="#9F9FA9"/>
<path d="M7.5 11C8.32843 11 9 10.3284 9 9.5C9 8.67157 8.32843 8 7.5 8C6.67157 8 6 8.67157 6 9.5C6 10.3284 6.67157 11 7.5 11Z" fill="#9F9FA9"/>
<path d="M11 13C13.1 13 14.6 14.2 14.6 14.2C15 14.5 15.1 15.2 14.8 15.6C14.5 16 13.8 16.1 13.4 15.8C13.4 15.8 12.4 15 11 15C9.60001 15 8.60001 15.8 8.60001 15.8C8.20001 16.1 7.50001 16.1 7.20001 15.6C6.90001 15.2 6.90001 14.5 7.40001 14.2C7.40001 14.2 8.90001 13 11 13Z" fill="#9F9FA9"/>
</svg>
