<svg width="20" height="20" viewBox="0 0 20 20" fill="none" xmlns="http://www.w3.org/2000/svg">
<path d="M3.24385 16.75C2.83304 16.75 2.5 16.4163 2.5 16.0049V3.99505C2.5 3.58357 2.84148 3.25 3.24385 3.25H16.7561C17.167 3.25 17.5 3.58371 17.5 3.99505V16.0049C17.5 16.4164 17.1585 16.75 16.7561 16.75H3.24385ZM16 12.25V4.75H4V15.25L11.5 7.75L16 12.25ZM16 14.3713L11.5 9.8713L6.12132 15.25H16V14.3713ZM7 9.25C6.17157 9.25 5.5 8.57845 5.5 7.75C5.5 6.92157 6.17157 6.25 7 6.25C7.82843 6.25 8.5 6.92157 8.5 7.75C8.5 8.57845 7.82843 9.25 7 9.25Z" fill="#9F9FA9"/>
</svg>
