<svg width="16" height="16" viewBox="0 0 16 16" fill="none" xmlns="http://www.w3.org/2000/svg">
<path d="M11.4715 1.52881L10.5287 2.47162L12.0573 4.00022H8.6668V5.33354H12.0573L10.5287 6.86214L11.4715 7.80494L14.6096 4.66688L11.4715 1.52881ZM6.33343 4.66688C6.33343 3.7464 5.58724 3.00021 4.66677 3.00021C3.74629 3.00021 3.0001 3.7464 3.0001 4.66688C3.0001 5.58736 3.74629 6.33354 4.66677 6.33354C5.58724 6.33354 6.33343 5.58736 6.33343 4.66688ZM7.6668 4.66688C7.6668 6.32374 6.32362 7.66687 4.66677 7.66687C3.00991 7.66687 1.66677 6.32374 1.66677 4.66688C1.66677 3.01002 3.00991 1.66688 4.66677 1.66688C6.32362 1.66688 7.6668 3.01002 7.6668 4.66688ZM3.94291 12.0002L5.47151 13.5288L4.52869 14.4716L1.39062 11.3335L4.52869 8.19547L5.47151 9.13827L3.94291 10.6669H7.33347V12.0002H3.94291ZM10.0001 12.6669H12.6668V10.0002H10.0001V12.6669ZM8.6668 9.33354C8.6668 8.96534 8.96527 8.66687 9.33347 8.66687H13.3335C13.7016 8.66687 14.0001 8.96534 14.0001 9.33354V13.3335C14.0001 13.7017 13.7016 14.0002 13.3335 14.0002H9.33347C8.96527 14.0002 8.6668 13.7017 8.6668 13.3335V9.33354Z" fill="#155DFC"/>
</svg>
