<svg width="16" height="16" viewBox="0 0 16 16" fill="none" xmlns="http://www.w3.org/2000/svg">
<path d="M6.63601 1.47381C7.52507 1.28771 8.45381 1.28183 9.36328 1.47198C9.48128 2.24501 9.93654 2.95936 10.6665 3.38077C11.3963 3.80217 12.2427 3.83931 12.9711 3.55495C13.5905 4.24753 14.0498 5.05477 14.3331 5.91776C13.7235 6.40647 13.3331 7.15741 13.3331 7.99955C13.3331 8.84221 13.7239 9.59355 14.3342 10.0822C14.1933 10.5091 14.0069 10.9282 13.7733 11.3329C13.5396 11.7376 13.2699 12.1085 12.9706 12.444C12.2423 12.1598 11.3962 12.1971 10.6665 12.6183C9.93714 13.0394 9.48201 13.753 9.36354 14.5253C8.47454 14.7114 7.54581 14.7173 6.63629 14.5271C6.51833 13.7541 6.06301 13.0397 5.33312 12.6183C4.60324 12.1969 3.75693 12.1598 3.02849 12.4442C2.40905 11.7516 1.94978 10.9443 1.66643 10.0813C2.27609 9.59268 2.66646 8.84168 2.66646 7.99955C2.66646 7.15695 2.27563 6.40559 1.66537 5.91691C1.80623 5.48996 1.99263 5.07094 2.22629 4.66623C2.45995 4.26153 2.72963 3.89059 3.02895 3.55513C3.75729 3.83929 4.60339 3.80208 5.33312 3.38077C6.06244 2.95969 6.51761 2.24615 6.63601 1.47381ZM7.99981 9.99955C9.10434 9.99955 9.99981 9.10415 9.99981 7.99955C9.99981 6.89501 9.10434 5.99957 7.99981 5.99957C6.89521 5.99957 5.99979 6.89501 5.99979 7.99955C5.99979 9.10415 6.89521 9.99955 7.99981 9.99955Z" fill="#4A5565"/>
</svg>
