<svg width="20" height="20" viewBox="0 0 20 20" fill="none" xmlns="http://www.w3.org/2000/svg">
<g clip-path="url(#clip0_642_29988)">
<path d="M9.1629 19.1654V17.4911C7.41886 17.2958 5.92248 16.5737 4.67375 15.325C3.42502 14.0763 2.70298 12.5799 2.50765 10.8358H0.833374V9.16156H2.50765C2.70298 7.41752 3.42502 5.92114 4.67375 4.6724C5.92248 3.42367 7.41886 2.70164 9.1629 2.50631V0.832031H10.8372V2.50631C12.5812 2.70164 14.0776 3.42367 15.3263 4.6724C16.5751 5.92114 17.2971 7.41752 17.4924 9.16156H19.1667V10.8358H17.4924C17.2971 12.5799 16.5751 14.0763 15.3263 15.325C14.0776 16.5737 12.5812 17.2958 10.8372 17.4911V19.1654H9.1629ZM10 15.8587C11.6185 15.8587 12.9998 15.2866 14.1439 14.1425C15.288 12.9984 15.86 11.6172 15.86 9.9987C15.86 8.38023 15.288 6.99895 14.1439 5.85486C12.9998 4.71077 11.6185 4.13873 10 4.13873C8.38157 4.13873 7.00029 4.71077 5.8562 5.85486C4.71212 6.99895 4.14007 8.38023 4.14007 9.9987C4.14007 11.6172 4.71212 12.9984 5.8562 14.1425C7.00029 15.2866 8.38157 15.8587 10 15.8587ZM10 13.3473C9.07919 13.3473 8.29088 13.0194 7.63512 12.3636C6.97936 11.7079 6.65149 10.9195 6.65149 9.9987C6.65149 9.07784 6.97936 8.28954 7.63512 7.63378C8.29088 6.97802 9.07919 6.65014 10 6.65014C10.9209 6.65014 11.7092 6.97802 12.365 7.63378C13.0207 8.28954 13.3486 9.07784 13.3486 9.9987C13.3486 10.9195 13.0207 11.7079 12.365 12.3636C11.7092 13.0194 10.9209 13.3473 10 13.3473ZM10 11.673C10.4605 11.673 10.8546 11.509 11.1825 11.1812C11.5104 10.8533 11.6743 10.4591 11.6743 9.9987C11.6743 9.53827 11.5104 9.14412 11.1825 8.81624C10.8546 8.48836 10.4605 8.32442 10 8.32442C9.53961 8.32442 9.14546 8.48836 8.81758 8.81624C8.4897 9.14412 8.32576 9.53827 8.32576 9.9987C8.32576 10.4591 8.4897 10.8533 8.81758 11.1812C9.14546 11.509 9.53961 11.673 10 11.673Z" fill="#52525C"/>
</g>
<defs>
<clipPath id="clip0_642_29988">
<rect width="20" height="20" fill="white"/>
</clipPath>
</defs>
</svg>
