<svg width="48" height="48" viewBox="0 0 48 48" fill="none" xmlns="http://www.w3.org/2000/svg">
<g clip-path="url(#clip0_306_36007)">
<path d="M38 0C32.478 0 28 4.478 28 10C28 13.954 32.002 19.408 34.942 22.882C36.54 24.77 39.46 24.77 41.058 22.882C43.998 19.408 48 13.954 48 10C48 4.478 43.522 0 38 0ZM38 14.286C35.634 14.286 33.714 12.368 33.714 10C33.714 7.632 35.634 5.714 38 5.714C40.366 5.714 42.286 7.634 42.286 10C42.286 12.366 40.366 14.286 38 14.286Z" fill="#A5A9B8"/>
<path opacity="0.35" d="M13.394 3.57195L8.918 6.25195C7.108 7.33595 6 9.28995 6 11.3999V38.2119C6 40.7599 8.78 42.3339 10.964 41.0239L13.392 39.5699C14.196 39.0879 15.094 38.8299 16 38.7899V2.79395C15.094 2.83395 14.196 3.09195 13.394 3.57195Z" fill="#A5A9B8"/>
<path opacity="0.35" d="M44.168 8.75191C43.744 6.29391 41.812 4.23791 39.376 3.69791C36.77 3.11991 34.398 4.17191 32.978 5.99991H24V41.9999H36C39.314 41.9999 42 39.3139 42 35.9999V14.6599C43.628 13.2859 44.578 11.1339 44.168 8.75191Z" fill="#A5A9B8"/>
<path d="M18.718 3.36583C17.862 2.93983 16.926 2.75183 16 2.79383V38.7898C16.928 38.7498 17.864 38.9378 18.72 39.3658L24 41.9998V5.99983L18.718 3.36583Z" fill="#A5A9B8"/>
</g>
<defs>
<clipPath id="clip0_306_36007">
<rect width="48" height="48" fill="white"/>
</clipPath>
</defs>
</svg>
