<svg width="32" height="32" viewBox="0 0 32 32" fill="none" xmlns="http://www.w3.org/2000/svg">
<path opacity="0.35" d="M16 17.3334C18.9455 17.3334 21.3333 14.9456 21.3333 12.0001C21.3333 9.05456 18.9455 6.66675 16 6.66675C13.0544 6.66675 10.6666 9.05456 10.6666 12.0001C10.6666 14.9456 13.0544 17.3334 16 17.3334Z" fill="#2B7FFF"/>
<path opacity="0.35" d="M27.8653 25.4413L27.228 23.8466C26.62 22.3293 25.1493 21.3333 23.5133 21.3333H8.48665C6.85065 21.3333 5.37998 22.3293 4.77331 23.8479L4.13598 25.4426C3.64531 26.6666 4.54798 27.9999 5.86665 27.9999H26.1333C27.452 27.9999 28.3546 26.6666 27.8653 25.4413Z" fill="#2B7FFF"/>
<path d="M16 2.66675C10.8453 2.66675 6.66663 6.84541 6.66663 12.0001C6.66663 15.6894 10.4013 20.7801 13.1453 24.0227C14.6373 25.7854 17.3613 25.7854 18.8533 24.0227C21.5986 20.7801 25.3333 15.6894 25.3333 12.0001C25.3333 6.84541 21.1546 2.66675 16 2.66675ZM16 15.3334C14.1586 15.3334 12.6666 13.8414 12.6666 12.0001C12.6666 10.1587 14.1586 8.66675 16 8.66675C17.8413 8.66675 19.3333 10.1587 19.3333 12.0001C19.3333 13.8414 17.8413 15.3334 16 15.3334Z" fill="#2B7FFF"/>
</svg>
