<svg width="32" height="32" viewBox="0 0 32 32" fill="none" xmlns="http://www.w3.org/2000/svg">
<path opacity="0.35" d="M24 25.3333V8C24 5.79067 22.2093 4 20 4H6.66663C4.45729 4 2.66663 5.79067 2.66663 8V24C2.66663 26.2093 4.45729 28 6.66663 28H26.6666C25.1933 28 24 26.8067 24 25.3333Z" fill="#62748E"/>
<path d="M18.6666 18.6667H7.99996C7.26396 18.6667 6.66663 18.0693 6.66663 17.3333C6.66663 16.5973 7.26396 16 7.99996 16H18.6666C19.4026 16 20 16.5973 20 17.3333C20 18.0693 19.4026 18.6667 18.6666 18.6667Z" fill="#62748E"/>
<path d="M18.6666 23.9999H7.99996C7.26396 23.9999 6.66663 23.4026 6.66663 22.6666C6.66663 21.9306 7.26396 21.3333 7.99996 21.3333H18.6666C19.4026 21.3333 20 21.9306 20 22.6666C20 23.4026 19.4026 23.9999 18.6666 23.9999Z" fill="#62748E"/>
<path d="M26.6667 9.33325H24V25.3333C24 26.8066 25.1933 27.9999 26.6667 27.9999C28.14 27.9999 29.3333 26.8066 29.3333 25.3333V11.9999C29.3333 10.5266 28.14 9.33325 26.6667 9.33325Z" fill="#62748E"/>
<path d="M18 9.33325C17.4853 9.33325 9.18129 9.33325 8.66663 9.33325C7.56263 9.33325 6.66663 10.2293 6.66663 11.3333C6.66663 12.4373 7.56263 13.3333 8.66663 13.3333C9.18129 13.3333 17.4853 13.3333 18 13.3333C19.104 13.3333 20 12.4373 20 11.3333C20 10.2293 19.104 9.33325 18 9.33325Z" fill="#62748E"/>
</svg>
