<svg width="28" height="28" viewBox="0 0 28 28" fill="none" xmlns="http://www.w3.org/2000/svg">
<path d="M0 9.6C0 6.23969 0 4.55953 0.653961 3.27606C1.2292 2.14708 2.14708 1.2292 3.27606 0.653961C4.55953 0 6.23969 0 9.6 0H18.4C21.7603 0 23.4405 0 24.7239 0.653961C25.8529 1.2292 26.7708 2.14708 27.346 3.27606C28 4.55953 28 6.23969 28 9.6V18.4C28 21.7603 28 23.4405 27.346 24.7239C26.7708 25.8529 25.8529 26.7708 24.7239 27.346C23.4405 28 21.7603 28 18.4 28H9.6C6.23969 28 4.55953 28 3.27606 27.346C2.14708 26.7708 1.2292 25.8529 0.653961 24.7239C0 23.4405 0 21.7603 0 18.4V9.6Z" fill="#27272A" fill-opacity="0.01"/>
<path d="M14.7811 14.0005L11.4813 10.7006L12.4241 9.75781L16.6667 14.0005L12.4241 18.2431L11.4813 17.3003L14.7811 14.0005Z" fill="#52525C"/>
</svg>
