<svg width="20" height="20" viewBox="0 0 20 20" fill="none" xmlns="http://www.w3.org/2000/svg">
<path d="M9.16663 9.16699V5.83366H10.8333V9.16699H14.1666V10.8337H10.8333V14.167H9.16663V10.8337H5.83329V9.16699H9.16663ZM9.99996 18.3337C5.39758 18.3337 1.66663 14.6027 1.66663 10.0003C1.66663 5.39795 5.39758 1.66699 9.99996 1.66699C14.6023 1.66699 18.3333 5.39795 18.3333 10.0003C18.3333 14.6027 14.6023 18.3337 9.99996 18.3337ZM9.99996 16.667C13.6819 16.667 16.6666 13.6822 16.6666 10.0003C16.6666 6.31843 13.6819 3.33366 9.99996 3.33366C6.31806 3.33366 3.33329 6.31843 3.33329 10.0003C3.33329 13.6822 6.31806 16.667 9.99996 16.667Z" fill="#51A2FF"/>
</svg>
