<svg width="16" height="16" viewBox="0 0 16 16" fill="none" xmlns="http://www.w3.org/2000/svg">
<path d="M6.20668 4.47334C6.08251 4.59825 6.01282 4.76722 6.01282 4.94334C6.01282 5.11947 6.08251 5.28843 6.20668 5.41334L8.79335 8.00001L6.20668 10.5867C6.09746 10.7142 6.04039 10.8783 6.04687 11.046C6.05335 11.2138 6.12291 11.373 6.24164 11.4917C6.36037 11.6104 6.51953 11.68 6.68731 11.6865C6.85509 11.693 7.01915 11.6359 7.14668 11.5267L10.2067 8.46668C10.3308 8.34177 10.4005 8.1728 10.4005 7.99668C10.4005 7.82055 10.3308 7.65158 10.2067 7.52668L7.14668 4.46668C7.02089 4.34339 6.85143 4.27489 6.6753 4.27614C6.49918 4.27739 6.33071 4.34828 6.20668 4.47334Z" fill="#ABABAB"/>
</svg>
