<svg width="16" height="16" viewBox="0 0 16 16" fill="none" xmlns="http://www.w3.org/2000/svg">
<path d="M12.0207 11.0785L14.8758 13.9337L13.933 14.8765L11.0779 12.0213C10.0513 12.8427 8.74937 13.334 7.33337 13.334C4.02137 13.334 1.33337 10.646 1.33337 7.33398C1.33337 4.02198 4.02137 1.33398 7.33337 1.33398C10.6454 1.33398 13.3334 4.02198 13.3334 7.33398C13.3334 8.74998 12.842 10.0519 12.0207 11.0785ZM10.6832 10.5839C11.4984 9.74372 12 8.59772 12 7.33398C12 4.75565 9.91171 2.66732 7.33337 2.66732C4.75504 2.66732 2.66671 4.75565 2.66671 7.33398C2.66671 9.91232 4.75504 12.0007 7.33337 12.0007C8.59711 12.0007 9.74311 11.499 10.5832 10.6838L10.6832 10.5839Z" fill="#9F9FA9"/>
</svg>
