<svg width="16" height="16" viewBox="0 0 16 16" fill="none" xmlns="http://www.w3.org/2000/svg">
<path d="M12.0207 11.078L14.8758 13.9332L13.933 14.876L11.0779 12.0208C10.0513 12.8422 8.74937 13.3335 7.33337 13.3335C4.02137 13.3335 1.33337 10.6455 1.33337 7.3335C1.33337 4.0215 4.02137 1.3335 7.33337 1.3335C10.6454 1.3335 13.3334 4.0215 13.3334 7.3335C13.3334 8.7495 12.842 10.0514 12.0207 11.078ZM10.6832 10.5834C11.4984 9.74323 12 8.59723 12 7.3335C12 4.75516 9.91171 2.66683 7.33337 2.66683C4.75504 2.66683 2.66671 4.75516 2.66671 7.3335C2.66671 9.91183 4.75504 12.0002 7.33337 12.0002C8.59711 12.0002 9.74311 11.4985 10.5832 10.6833L10.6832 10.5834Z" fill="#99A1AF"/>
</svg>
