<svg width="16" height="16" viewBox="0 0 16 16" fill="none" xmlns="http://www.w3.org/2000/svg">
<path d="M12.0207 11.0766L14.8758 13.9317L13.933 14.8745L11.0779 12.0194C10.0513 12.8407 8.74937 13.332 7.33337 13.332C4.02137 13.332 1.33337 10.644 1.33337 7.33203C1.33337 4.02003 4.02137 1.33203 7.33337 1.33203C10.6454 1.33203 13.3334 4.02003 13.3334 7.33203C13.3334 8.74803 12.842 10.05 12.0207 11.0766ZM10.6832 10.5819C11.4984 9.74177 12 8.59576 12 7.33203C12 4.7537 9.91171 2.66536 7.33337 2.66536C4.75504 2.66536 2.66671 4.7537 2.66671 7.33203C2.66671 9.91037 4.75504 11.9987 7.33337 11.9987C8.59711 11.9987 9.74311 11.497 10.5832 10.6818L10.6832 10.5819Z" fill="#9F9FA9"/>
</svg>
