<svg width="20" height="20" viewBox="0 0 20 20" fill="none" xmlns="http://www.w3.org/2000/svg">
<path d="M14.0207 13.078L16.8758 15.9332L15.933 16.876L13.0779 14.0208C12.0513 14.8422 10.7494 15.3335 9.33337 15.3335C6.02137 15.3335 3.33337 12.6455 3.33337 9.3335C3.33337 6.0215 6.02137 3.3335 9.33337 3.3335C12.6454 3.3335 15.3334 6.0215 15.3334 9.3335C15.3334 10.7495 14.842 12.0514 14.0207 13.078ZM12.6832 12.5834C13.4984 11.7432 14 10.5972 14 9.3335C14 6.75516 11.9117 4.66683 9.33337 4.66683C6.75504 4.66683 4.66671 6.75516 4.66671 9.3335C4.66671 11.9118 6.75504 14.0002 9.33337 14.0002C10.5971 14.0002 11.7431 13.4985 12.5832 12.6833L12.6832 12.5834Z" fill="#4A5565"/>
</svg>
