<svg width="20" height="20" viewBox="0 0 20 20" fill="none" xmlns="http://www.w3.org/2000/svg">
<path d="M14.5233 13.4626L17.7353 16.6746L16.6746 17.7353L13.4626 14.5233C12.3077 15.4473 10.843 16 9.25 16C5.524 16 2.5 12.976 2.5 9.25C2.5 5.524 5.524 2.5 9.25 2.5C12.976 2.5 16 5.524 16 9.25C16 10.843 15.4473 12.3077 14.5233 13.4626ZM13.0185 12.9061C13.9356 11.9609 14.5 10.6717 14.5 9.25C14.5 6.34938 12.1506 4 9.25 4C6.34938 4 4 6.34938 4 9.25C4 12.1506 6.34938 14.5 9.25 14.5C10.6717 14.5 11.9609 13.9356 12.9061 13.0185L13.0185 12.9061Z" fill="#27272A"/>
</svg>
