<svg width="18" height="18" viewBox="0 0 18 18" fill="none" xmlns="http://www.w3.org/2000/svg">
<path d="M9 10.5V12C6.51472 12 4.5 14.0147 4.5 16.5H3C3 13.1863 5.68629 10.5 9 10.5ZM9 9.75C6.51375 9.75 4.5 7.73625 4.5 5.25C4.5 2.76375 6.51375 0.75 9 0.75C11.4863 0.75 13.5 2.76375 13.5 5.25C13.5 7.73625 11.4863 9.75 9 9.75ZM9 8.25C10.6575 8.25 12 6.9075 12 5.25C12 3.5925 10.6575 2.25 9 2.25C7.3425 2.25 6 3.5925 6 5.25C6 6.9075 7.3425 8.25 9 8.25ZM10.9459 14.1086C10.8995 13.9133 10.875 13.7095 10.875 13.5C10.875 13.2905 10.8995 13.0868 10.9459 12.8915L10.2022 12.4621L10.9522 11.163L11.6964 11.5927C11.9912 11.3138 12.3507 11.1026 12.75 10.9837V10.125H14.25V10.9837C14.6493 11.1026 15.0087 11.3138 15.3035 11.5927L16.0478 11.1629L16.7979 12.462L16.0541 12.8914C16.1005 13.0867 16.125 13.2905 16.125 13.5C16.125 13.7095 16.1005 13.9132 16.0541 14.1085L16.7979 14.5379L16.0479 15.837L15.3036 15.4072C15.0088 15.6862 14.6494 15.8974 14.2501 16.0162V16.875H12.7501V16.0163C12.3508 15.8975 11.9913 15.6863 11.6965 15.4073L10.9522 15.8371L10.2022 14.538L10.9459 14.1086ZM13.5 14.625C14.1213 14.625 14.625 14.1213 14.625 13.5C14.625 12.8787 14.1213 12.375 13.5 12.375C12.8787 12.375 12.375 12.8787 12.375 13.5C12.375 14.1213 12.8787 14.625 13.5 14.625Z" fill="#52525C"/>
</svg>
