<svg width="32" height="32" viewBox="0 0 32 32" fill="none" xmlns="http://www.w3.org/2000/svg">
<path d="M0 16C0 7.16344 7.16344 0 16 0C24.8366 0 32 7.16344 32 16C32 24.8366 24.8366 32 16 32C7.16344 32 0 24.8366 0 16Z" fill="#1E2939" fill-opacity="0.1"/>
<path d="M16 0.5C24.5604 0.5 31.5 7.43959 31.5 16C31.5 24.5604 24.5604 31.5 16 31.5C7.43959 31.5 0.5 24.5604 0.5 16C0.5 7.43959 7.43959 0.5 16 0.5Z" stroke="#1E2939" stroke-opacity="0.1"/>
<circle cx="16" cy="12" r="4" fill="white"/>
<path d="M24 24C24 22.1435 23.1571 20.363 21.6569 19.0503C20.1566 17.7375 18.1217 17 16 17C13.8783 17 11.8434 17.7375 10.3431 19.0503C8.84286 20.363 8 22.1435 8 24L24 24Z" fill="white"/>
</svg>
