<svg width="32" height="32" viewBox="0 0 32 32" fill="none" xmlns="http://www.w3.org/2000/svg">
<path d="M29.0627 10.3693C28.8334 9.41198 27.624 9.09065 26.928 9.78665C25.2547 11.46 23.3907 13.324 23.024 13.6907C21.6427 15.072 19.348 14.988 18.0787 13.4347C16.9747 12.0853 17.2107 10.0747 18.444 8.84132L22.212 5.07332C22.908 4.37732 22.588 3.16665 21.6307 2.93732C20.236 2.60265 18.728 2.56265 17.1654 2.90132C13.284 3.74398 10.1907 6.92265 9.49603 10.8333C9.18403 12.5907 9.33469 14.2827 9.84136 15.812L3.98536 21.6507C2.22803 23.408 2.22803 26.2573 3.98536 28.0147C5.74269 29.772 8.59203 29.772 10.3494 28.0147L16.2134 22.168C17.736 22.668 19.4187 22.8133 21.1654 22.5027C25.0774 21.808 28.256 18.716 29.0974 14.8333C29.4374 13.2707 29.396 11.764 29.0627 10.3693Z" fill="#4FC660"/>
<path d="M7.33337 26.6667C8.43794 26.6667 9.33337 25.7713 9.33337 24.6667C9.33337 23.5622 8.43794 22.6667 7.33337 22.6667C6.2288 22.6667 5.33337 23.5622 5.33337 24.6667C5.33337 25.7713 6.2288 26.6667 7.33337 26.6667Z" fill="#F3FDF5"/>
</svg>
